<mxfile host="app.diagrams.net" modified="2023-07-20T08:18:11.680Z" agent="Mozilla/5.0 (Windows NT 10.0; Win64; x64) AppleWebKit/537.36 (KHTML, like Gecko) Chrome/114.0.0.0 Safari/537.36 Edg/114.0.1823.82" etag="22N5xJw_bTsS74m4YJdh" version="21.2.1" type="github">
  <diagram name="Page-1" id="55a83fd1-7818-8e21-69c5-c3457e3827bb">
    <mxGraphModel dx="2335" dy="646" grid="1" gridSize="10" guides="1" tooltips="1" connect="1" arrows="1" fold="1" page="1" pageScale="1" pageWidth="1100" pageHeight="850" background="none" math="0" shadow="0">
      <root>
        <mxCell id="0" />
        <mxCell id="1" parent="0" />
        <mxCell id="69ecfefc5c41e42c-18" style="edgeStyle=none;rounded=0;html=1;labelBackgroundColor=none;endArrow=none;strokeWidth=2;fontFamily=Verdana;fontSize=22" parent="1" target="69ecfefc5c41e42c-3" edge="1">
          <mxGeometry relative="1" as="geometry">
            <mxPoint x="500" y="215" as="sourcePoint" />
          </mxGeometry>
        </mxCell>
        <mxCell id="69ecfefc5c41e42c-3" value="mesh设备汇聚节点" style="image;html=1;labelBackgroundColor=#ffffff;image=img/lib/clip_art/networking/Firewall_128x128.png;rounded=1;shadow=0;comic=0;strokeWidth=2;fontSize=22;labelPosition=right;verticalLabelPosition=middle;align=left;verticalAlign=middle;" parent="1" vertex="1">
          <mxGeometry x="460" y="40" width="80" height="80" as="geometry" />
        </mxCell>
        <mxCell id="69ecfefc5c41e42c-11" value="" style="html=1;fillColor=#CCCCCC;strokeColor=#6881B3;gradientColor=none;gradientDirection=north;strokeWidth=2;shape=mxgraph.networks.comm_link_edge;html=1;labelBackgroundColor=none;endArrow=none;fontFamily=Verdana;fontSize=22;fontColor=#000000;" parent="1" edge="1">
          <mxGeometry width="100" height="100" relative="1" as="geometry">
            <mxPoint x="220" y="233.125" as="sourcePoint" />
            <mxPoint x="460" y="251.875" as="targetPoint" />
          </mxGeometry>
        </mxCell>
        <mxCell id="69ecfefc5c41e42c-12" value="" style="html=1;fillColor=#CCCCCC;strokeColor=#6881B3;gradientColor=none;gradientDirection=north;strokeWidth=2;shape=mxgraph.networks.comm_link_edge;html=1;labelBackgroundColor=none;endArrow=none;fontFamily=Verdana;fontSize=22;fontColor=#000000;fontStyle=1" parent="1" edge="1">
          <mxGeometry width="100" height="100" relative="1" as="geometry">
            <mxPoint x="220" y="408.125" as="sourcePoint" />
            <mxPoint x="460" y="276.875" as="targetPoint" />
          </mxGeometry>
        </mxCell>
        <mxCell id="69ecfefc5c41e42c-13" value="" style="html=1;fillColor=#CCCCCC;strokeColor=#6881B3;gradientColor=none;gradientDirection=north;strokeWidth=2;shape=mxgraph.networks.comm_link_edge;html=1;labelBackgroundColor=none;endArrow=none;fontFamily=Verdana;fontSize=22;fontColor=#000000;" parent="1" edge="1">
          <mxGeometry width="100" height="100" relative="1" as="geometry">
            <mxPoint x="374.48979591836724" y="460" as="sourcePoint" />
            <mxPoint x="475.51020408163254" y="295" as="targetPoint" />
          </mxGeometry>
        </mxCell>
        <mxCell id="69ecfefc5c41e42c-14" value="" style="html=1;fillColor=#CCCCCC;strokeColor=#6881B3;gradientColor=none;gradientDirection=north;strokeWidth=2;shape=mxgraph.networks.comm_link_edge;html=1;labelBackgroundColor=none;endArrow=none;fontFamily=Verdana;fontSize=22;fontColor=#000000;" parent="1" edge="1">
          <mxGeometry width="100" height="100" relative="1" as="geometry">
            <mxPoint x="524.8936170212767" y="450" as="sourcePoint" />
            <mxPoint x="505.10638297872333" y="295" as="targetPoint" />
          </mxGeometry>
        </mxCell>
        <mxCell id="69ecfefc5c41e42c-15" value="" style="html=1;fillColor=#CCCCCC;strokeColor=#6881B3;gradientColor=none;gradientDirection=north;strokeWidth=2;shape=mxgraph.networks.comm_link_edge;html=1;labelBackgroundColor=none;endArrow=none;fontFamily=Verdana;fontSize=22;fontColor=#000000;" parent="1" edge="1">
          <mxGeometry width="100" height="100" relative="1" as="geometry">
            <mxPoint x="720" y="428.46153846153834" as="sourcePoint" />
            <mxPoint x="540" y="286.53846153846143" as="targetPoint" />
          </mxGeometry>
        </mxCell>
        <mxCell id="69ecfefc5c41e42c-16" value="" style="html=1;fillColor=#CCCCCC;strokeColor=#6881B3;gradientColor=none;gradientDirection=north;strokeWidth=2;shape=mxgraph.networks.comm_link_edge;html=1;labelBackgroundColor=none;endArrow=none;fontFamily=Verdana;fontSize=22;fontColor=#000000;" parent="1" edge="1">
          <mxGeometry width="100" height="100" relative="1" as="geometry">
            <mxPoint x="790" y="329.69696969696975" as="sourcePoint" />
            <mxPoint x="540" y="265.30303030303025" as="targetPoint" />
          </mxGeometry>
        </mxCell>
        <mxCell id="69ecfefc5c41e42c-17" value="" style="html=1;fillColor=#CCCCCC;strokeColor=#6881B3;gradientColor=none;gradientDirection=north;strokeWidth=2;shape=mxgraph.networks.comm_link_edge;html=1;labelBackgroundColor=none;endArrow=none;fontFamily=Verdana;fontSize=22;fontColor=#000000;" parent="1" edge="1">
          <mxGeometry width="100" height="100" relative="1" as="geometry">
            <mxPoint x="800" y="197.6470588235294" as="sourcePoint" />
            <mxPoint x="540" y="247.3529411764705" as="targetPoint" />
          </mxGeometry>
        </mxCell>
        <mxCell id="v3j8jryw-0ta3aJHkXqk-2" value="mesh设备汇聚&lt;br&gt;节点1" style="image;html=1;labelBackgroundColor=#ffffff;image=img/lib/clip_art/networking/Firewall_128x128.png;rounded=1;shadow=0;comic=0;strokeWidth=2;fontSize=22;labelPosition=center;verticalLabelPosition=bottom;align=center;verticalAlign=top;" parent="1" vertex="1">
          <mxGeometry x="30" y="190" width="80" height="80" as="geometry" />
        </mxCell>
        <mxCell id="v3j8jryw-0ta3aJHkXqk-13" value="mesh设备汇聚&lt;br&gt;节点2" style="image;html=1;labelBackgroundColor=#ffffff;image=img/lib/clip_art/networking/Firewall_128x128.png;rounded=1;shadow=0;comic=0;strokeWidth=2;fontSize=22;labelPosition=center;verticalLabelPosition=bottom;align=center;verticalAlign=top;" parent="1" vertex="1">
          <mxGeometry x="40" y="360" width="80" height="80" as="geometry" />
        </mxCell>
        <mxCell id="v3j8jryw-0ta3aJHkXqk-14" value="mesh设备汇聚&lt;br&gt;节点3" style="image;html=1;labelBackgroundColor=#ffffff;image=img/lib/clip_art/networking/Firewall_128x128.png;rounded=1;shadow=0;comic=0;strokeWidth=2;fontSize=22;labelPosition=center;verticalLabelPosition=bottom;align=center;verticalAlign=top;" parent="1" vertex="1">
          <mxGeometry x="315" y="550" width="80" height="80" as="geometry" />
        </mxCell>
        <mxCell id="v3j8jryw-0ta3aJHkXqk-15" value="mesh设备汇聚&lt;br&gt;节点4" style="image;html=1;labelBackgroundColor=#ffffff;image=img/lib/clip_art/networking/Firewall_128x128.png;rounded=1;shadow=0;comic=0;strokeWidth=2;fontSize=22;labelPosition=center;verticalLabelPosition=bottom;align=center;verticalAlign=top;" parent="1" vertex="1">
          <mxGeometry x="495" y="540" width="80" height="80" as="geometry" />
        </mxCell>
        <mxCell id="v3j8jryw-0ta3aJHkXqk-16" value="以太网" style="image;html=1;labelBackgroundColor=#ffffff;image=img/lib/clip_art/networking/Cloud_128x128.png;rounded=1;shadow=0;comic=0;strokeWidth=2;fontSize=22;labelPosition=center;verticalLabelPosition=top;align=center;verticalAlign=bottom;" parent="1" vertex="1">
          <mxGeometry x="460" y="210" width="80" height="80" as="geometry" />
        </mxCell>
        <mxCell id="O8asKUsupp3e0jE8GUq2-1" value="mesh设备汇聚&lt;br&gt;节点5" style="image;html=1;labelBackgroundColor=#ffffff;image=img/lib/clip_art/networking/Firewall_128x128.png;rounded=1;shadow=0;comic=0;strokeWidth=2;fontSize=22;labelPosition=center;verticalLabelPosition=bottom;align=center;verticalAlign=top;" vertex="1" parent="1">
          <mxGeometry x="685" y="520" width="80" height="80" as="geometry" />
        </mxCell>
        <mxCell id="O8asKUsupp3e0jE8GUq2-2" value="mesh设备汇聚&lt;br&gt;节点6" style="image;html=1;labelBackgroundColor=#ffffff;image=img/lib/clip_art/networking/Firewall_128x128.png;rounded=1;shadow=0;comic=0;strokeWidth=2;fontSize=22;labelPosition=center;verticalLabelPosition=bottom;align=center;verticalAlign=top;" vertex="1" parent="1">
          <mxGeometry x="890" y="305" width="80" height="80" as="geometry" />
        </mxCell>
        <mxCell id="O8asKUsupp3e0jE8GUq2-3" value="mesh设备汇聚&lt;br&gt;节点7" style="image;html=1;labelBackgroundColor=#ffffff;image=img/lib/clip_art/networking/Firewall_128x128.png;rounded=1;shadow=0;comic=0;strokeWidth=2;fontSize=22;labelPosition=center;verticalLabelPosition=bottom;align=center;verticalAlign=top;" vertex="1" parent="1">
          <mxGeometry x="900" y="150" width="80" height="80" as="geometry" />
        </mxCell>
        <mxCell id="O8asKUsupp3e0jE8GUq2-5" value="" style="edgeStyle=orthogonalEdgeStyle;rounded=0;orthogonalLoop=1;jettySize=auto;html=1;" edge="1" parent="1" source="O8asKUsupp3e0jE8GUq2-4" target="v3j8jryw-0ta3aJHkXqk-2">
          <mxGeometry relative="1" as="geometry" />
        </mxCell>
        <mxCell id="O8asKUsupp3e0jE8GUq2-4" value="" style="shape=image;verticalLabelPosition=bottom;labelBackgroundColor=default;verticalAlign=top;aspect=fixed;imageAspect=0;image=data:image/png,iVBORw0KGgoAAAANSUhEUgAAAMgAAADICAYAAACtWK6eAAAAAXNSR0IArs4c6QAAF3tJREFUeF7tnXl0VdW9x7/7JiEJJEByM4BKESwOsLQVpPa9gmJb2yW2Qi6DIOB6gNb1XhVeQV1Wfctni9aioKK2CwGxUocyXEBLaMS1tMLr6pOCdcLnwDxkuPcmQAIhJPf+3jqXMOaGe4Z9ztnn3N/5hz+yf8P+/vaHM9w9CPDFCrACnSogWBtWgBXoXAEGhEcHK3AeBRgQHh6sAAPCY4AVMKcA30HM6cZWGaIAA5IhheZumlOAATGnG1tliAIMSIYUmrtpTgEGxJxubJUhCjAgGVJo7qY5BRgQc7qxVYYowIBkSKG5m+YUYEDM6cZWGaIAA5IhheZumlOAATGnG1tliAIMSIYUmrtpTgEGxJxubJUhCjAgLhX61d1U1LU7erS2oDAnG/kUQBcIZCXTIcRFAsdb29Cck4vGo4dxaFJf0eBSqhkdlgGxqfyrG+hitOIKCmAAgEsA9AWhDwQGWwpJ2AqBvQB2A9guEvgKOfi8okjssuSXjVMqwIBIGBgaDET4riAMJcIQIAlBoQTXRlw0AtgqBLaQwGYh8HeGxoh8qdsyICY0XFtL5Yks3EgCN4AwHkCBCTdOmDRBYHmC8G5OHBtGlYtaJ4L6KQYDorOaa2I0MEG4BQI3gzBMp5lazQQ2gbCurRVvju8ttqmVnJrZMCDnqcuaGPVJJDABAuMADFWzhKaz2gzCikAAb4wOCu2dhq8UCjAgKUQJRylEhOlCYGQmjBoiVAqBJaESEc6E/hrpIwPSrtarB6kovw13QeBOEPobEdE3bQV2gLCoORsLJ/Xkz8paXTMekOQXqARmgPAL3wx0GR0hPC2ysSDTv4RlLCDLa6hfdjZmA/i5jPHkYx8viCw8lamgZBwgfz5IRcfjeBCEe308qOV3TeCp5iY8nmm/6GcUIOEIzYLAPPmjJ4M8EmaHSsX8TOlxRgCyup5uojiWQqA8Uwpraz8JtSILUyuKxXpb4yjg3NeAJB+nWjEXAncooLX/UiAsbs7B/X7+4uVbQFZHaGICmC8EevlvZKrTIyLUBIBZFaXidXWykpeJ7wCpJMo9FsXzfNeQN0h0eSIsPtSEe6b2E8d0tfdII18BsiJCI7IEXgPQ2yP6+y3NakG4raJUvOeXjvkGEP5CpdCQFJgdCvrjS5cvAAlH6SUAUxUaIpwKsDRUIqZ5XQhPA9I+TWSZZ6efe330pMuf8D9tcUwZ30vsTNdU1b97FpBwPQ1DAhtVFZbzOq1APIHrxpUJT9bKk4Bo09EBrOJB6B0FEnGMHVsuPFczzwESjtE0EJZ4Z2hwpqcUEJgeCgrtfdEzl6cACUdJm3n7vGfU5URTKXB3qES84BVpPAPIyjqaGQjgGa8Iy3l2rkAigf8cWyae9YJGngCE7xxeGEqGc/TEnUR5QPidw/DA846BB95JlAZkZS2NCWRhpXcqzpmaUGCMyptFKAvIijoanhXA+yYEZxOvKRDA8FCx2KRi2koC0r5efIeKgnFO9iggstBPxXXvSgISjtAmCHzPnlKwVyUVENgUCorhquWmHCA88VC1IeJoPspNcFQKkHCMZoF4UwVHh6RqwRTbFEIZQFZHaAQJvKtavTgf5xWIE24Yp8iiKyUAWbqT8noUQnsp55WAzo9HFSNW5wXRb6QQLW4npwQg4Qgt4jXkbg8FxeITFodKxZ1uZ+U6INruI3RiHTlfrMBZCrSvb3d1txRXAdF2VM9rxTbemofJSKWAtqVQbg4G/sTFneZdBYQfrRiMtAq4/KjlGiDJ7UATqEwrEDfIeAVEACPd2ubUNUDCEarhvXIzfuzrE4BQGyoVruyQ6QogvIeVvnHBrc5QwKUfEB0H5NXdVJTfDfVcfFbAqAJdslHs9Au744CEY/Sk2cNr4keb0LTrC6O6cnuXFCjodzmy8rvJiy7wVCgo7pPnML0nRwFJbvQWh+FNxI7X12HLH57Dx//4IH2PuIVSClxx1bcx6MafIjhYztHybW3o7+RGdI4CEo6StiOJoTMBW2r34eVZ05UqOidjXIEpjz2Hrhdfatywo8ULoRJxtwxHenw4BojZu8empx7EZx9u0dMXbqOwAlcOGYp/nTVHSoZOLq5yDJBwhOZDGD9qeeXMyYhFI1KEZSfuKnDHolXI6lpgPQmBp0NBMcu6o/QeHAFEm1KS32buy9XCST9O3wtu4QkFJjz0OHoMHCIl1+ZsFDtx9JsjgISj9ACA35hRJhUgu2tqzLhiG4cUyAoEcFFZWYdoMgEB8MtQiXjC7i45A0iMtoPQ30xnUgGyq7oah48cMeOObRxQoLh7d/sBEdgRCopL7O6O7YBY3YmdAbF7CMj37wggJ9K2fU8t2wFZFaF1QmCk2TIwIGaVc8/OKUCIUDmmVNxsZ09tBWRNjPokCHusdIABsaKeO7ZOAaL1LiDwjdFBsdeuntoKSDhC90FgrpXkGRAr6rlj6yQgINwfKhVP2tVTewGJkjY3ZKiV5BkQK+q5Y+soIMDmUIn4jl09tQ2Q5dU0MDsHn1lN3OuA5Ofl4ZL+/VFbV4dINGpVDk/YOwyI9pg1aHRQbLNDHNsAsfLbx5kd9TIgU6dMwX/87Ge4sPcFyS797sUXMWfub+2oo1I+nQbEzt9E7AMkRhtlHM/sVUBmz5iB2TNmdhi4L7y4EI/NtfRaphQMqZJxHBAb9/W1BZC1tVQez4KUn7u9CEhncGiD6UBNNa4ZJmfqt6qkOA4IgKw4eo0qF7WyNbEFkJVRmhwAlslI1muAnA8OTY+9+/bh2hHXy5BGWR9uACKAKRUl4o+yRbEFkHCMloAwTUayXgIkHRyaHr9fvBi/fsLUtDQZcjriww1AIPBSKCikLxyyB5AoNQKQMK8Z8AogeuB4a30l7rrnHkcGqZtBXAEEaAqViELZ/ZYOiNmFUZ11zAuAMBxnV88lQGDHQirpgITraQISkLafquqAMBwd/2tzCxAEMDFULN6QeReRDsjqGM0jgrTVXioDwnCkHopuASIE5lcExWylAQlH6T0A0j7TqAoIw9H5MHQLEAB/DZWIEaoDchiAtJclFQFhOM4/BF0EpDFUIrorC4jsF3Sto6oBwnCkH34uAiL9RV3qO8jqOrqJAnJ3bFcJEIYjPRxaC1cBSWBkRZlYry/T9K2kAhKO0gwAz6YPq7+FKoAwHPpr5iYgAGaGSsQC/dmev6VsQDQ4NEikXSoAwnAYK6fLgCwIlYiOs0SNdeFUa9mArAEwymQuKc3cBoThMF5NlwFZGyoRo41nndpCLiAR2gKBwbKSc/slneEwV0lXASFsDZUKObvTAZALSJTInKSdW7l1B2E4zFfSVUAAhEqEtHEtzZEmZ9gngDAc5uFw+yuWFl9JQOw6OcrpOwjDYQ0OFQBpPoLiSX1Fg/WeSHzEsuNHQqffQSZPmIC5cx47r66ZMmXdyuBy+xFL5qxeaY9Yy2voyuxsfGxF2FS2Tt5B3lqxEkOuvrrTLjAcp6XJyc5Gl5yclFp179oNpUU9O/zt+5PvRDc5h+icd5h9tmHdtJ0fvN/hJLNAINBUWVn5DyNjVBogq6P0HQL+10hwPW2dBOTA19sZDh1F6V1SgtKeRTpaKtlkWzweH/vOO+98ric7aYCE62kYEtioJ6iRNk4CsvZPyzF0SMcvhHrvHBf27p3c5ueHN3w/2cW/btqE+x9+yEh3lW+bn5uLAX2+YVueTc3NOHa8BcWF3REIBOyK81pVVdUkPc7lAdJA1yMObaq71MtJQFK9g+iF49IBA/Digueg/XvmNW/Bs5i3QNrMB6namnFWVFiIPuW9zJjqsvlsx3bEEwlcVFaenNNl0/VFVVXV5Xp8MyDnqPQv116LsaNGo6ysDP/8+CNdg7szOE66vvb667F3/z499VC+TVFhd/QpL7ctz93V1Wg61ox+vS9A17w8u+J8WVVVdZke5/IA8cEjlh7Bzm2TDg6t/Y9u+Sk+3WbLzphmUrZkYzcglpLTb+w8IH54Sdev74mWeuDYX30A1914I5qPHTPqXsn2JwGJHjqIao/tNVxWVITy4qCmq/OA+OEzr5ERqQcOzd9Dj/43li6TsoeekfRsa3smIAci3jp9uLy42D1A/PBDod5RpRcOv72ga/owIHpHyTnt/DLVJF33MxkOBiTd6Ejzd79MVuysm5kOBwPCgHSqAMNxQhp+xLIASdhnC6ZOSsFwnB4UDIgVQKLkuyW3mhyvv/wHXJ/mTA8/vpCnGgoMiDVAfLdpg3b3eG/9X86rSqbAYecj1hWXX45Lv/lNvFVZiUQiYWEUdm7q6mdeLS0/bvujHcC58e0NnaqeSXDYBci4igo8M/dJCCGw4Pe/wxPz5vkTEL9uHKfdQc6dhKhVMNPgsAOQSbdqi9TmJOHQrpdeeQUP/+pRnwLSQBdTHB0WqljprZOzeTvLU1tEtWzRYvTseWIRUPOx5uSJtX6apau3RjLfQf5t0mQ8/uhpGGrranFTRQVqaqUfNZjsnuuPWO2PWb7cvDovLw9Xf+tbSaEbGxt9M/lQLxgn28kCRLtzPPnY6eXN+/bvR+i2idD+tetSBZCMOP7AriKq7lcGIFOn3I7HHnnkVFc1KG4ZP862O8fJQEoAkkkH6Kg+mO3IzyogbsGhziNWhh3BZscgVNmnFUDOhWP33r2omHCr7XcOte4gkl/UVXhJV3nAOp2bWUD+/Y478V8PPHAqXQ2OW8aNRcTBNSVKPGK1v6hn3DHQTg9Ut+KZAUQFOJR5xEoCEqMlIEyTUUS+g8hQUZ4Po4BcM3gw3ly+4lQC23fsSH6tcvLOodQjlpbM6ihNJkDKMjoGRN7gluHJKCA/+sEP8fLChcnQGhyjbh2P+obTu4KWlZbiByNuwLq/rMfhRu3Bw75LmUestbVUHs9CjYyuMiAyVJTnwygg2i/kv/31HJQEg7j3wV+eBcegKwYi/PrrKCwowIcffYSbx4TkJZrCkzKAtD9mbQRhmNUepwJkv8fWQlvVQCV7bSseDRJt0wYra9K/fdVV+NMry5JwaFfmARIl7ZPFb6wWNxUgVn2yvVUFhCVANDhW/PFVdOvaNZlIbV0dRo0fjz379lpN7Lz2St1B1sRoYILwmdUeMyBWFbTD3jwg58IRq69P/oq+c9cuOxI9y6dSgCQfs6L0AYChVnrOgFhRzy5bc4BcNmAA1oXD6Jp/4s7R2NSE0beOx+dffGFXoooDEqH7IDDXSu8ZECvq2WVrDhDt7BVt/2PtOtp8FKGJE/Hxp5/alWQHv8rdQdbEqE+CsMeKAgyIFfXssjUHyIjh1+G1pUuTcNw65XZs+eeHdiWY0q9ygGhZrorQOiEw0qwSDIhZ5ey0MweIltGVgwYllwvs2mPp/01TnVMSkHCUtI/bq0z1CAADYlY5O+3MA2JnVul8KwlI8mU9RttB6J+uA6n+zoCYUc1uGwZEqsJhC7+JMCBSSyHJGQMiScgTbl49SEX5bag345QBMaOa3TYMiHSFwzGaD8IvjDpmQIwq5kR7BkS6ymaPR2BApJdCgkMGRIKIHV2Eo/Q8gJ8bcc6AGFHLqbYMiC1KL6+hftnZ2GHEOQNiRC2n2jIgtikdjtGTINyrN8Cb909HtU9OiNXbZ/XbMSC21ejPB6nouIEvWp+8/Az+tmG9bfmwYzMKMCBmVNNtE47QLAjo3qH4b/MfxidbNuv2zw3tVoABsVthhCNUAwHdJ9J/tWoJdny0Fbu2f217bhwgnQIMSDqFLP99dT3dRAlUWnakoIOuLY3oHZW6h3eHXiYCWdjZe5Djvf/i/Q14b+E8SysKHU+6PaCyc7E6EyQcoUUQuMMtweyK27MpiuChA3a5P+V3d6/L0ZbVxfY4ZwZgQByUW3thb2nFNiHQy8Gwtocqa9iHwqOmZtYYyq062A9H8woN2VhtzIBYVdCg/eoITSSB1wyaKd38osjXyD1+1PYcYz1642BBqe1x+A7iqMQdg/ntUav/gU8hyJ5z9s5Ur7FrEeqK+jhaPb6DOCr3iWCVRLnHYsmTqXq7EF5qyJy2Fnyj1plNCFpy8rGvbIDU/NM5Y0DSKWTT31dEaESWwLs2uXfMbbfmQ+hVv9uReCQEdlxwpSOxTgZhQByV++xgRn9AdDHVTkMXNdai+LA9Z+ylCrq3/DIcz851TAoGxDGpUwcKR+klAFNdTsN0+PL6PShoPmja3qhhbXFfNOX3MGpmuj0DYlo6eYbhGEnZ11deRvo99an9El3ajuk3sNiyobAc9d11T0iwGA1gQCxLaN2B2cVV1iNb8yCI0P/AJ9acGLQ+kt8DNcV9DVqZb34mIIebjph35IJlt/w8lBcHtchfVlVVXaYnhROntyt4hetpGBLYqGBqnaaU29qMi+q+cjTl1uxc7CnXVWspeZ0ERIqzTpxEDx5ES+tx5OZ0QUn72fSS43kfEE0Qq3tqSRY1rbvCow0oa7B3h/JUSWhfsrQvWk5cdgNSWx9Dbf3pWQi9ioMoKy6W3TV/AJKEJEbTQFgiWyHz/qhT0+DhGvRsjJh3bdJS+y2kJSevE2u54NgNyK7qAzh85PSjW4+CAvTtJf3nMf8A0n4n0daxa+vZXb+Ch6rRs8l5CMx0/HhOHvaWXWrGtFObHR9swoZn50j1eaYz7XCk2KHTXwG1R6wLSqRPp9lSVVV1jZ5OyP3vRU9Ek21W1tHMQADPmDSXZqYB0u3YIWn+7HREIiAdkJYjTXht5u043mzPXLN4PI4D0eipd5ALS0sRCARky/RIVVXVr/Q49Qwgqt1J9Ijr1zbV//cJPlq3Cg37jc8YONZ4OHr86BG3/odpJKI1b7/99qN6a+MpQNR8J9ErNbeDwPRQUGg/BHvm8hwgmrIra2lMIAsrPaMyJ6opMCZUIsJek8KTgGgir6ij4VkBvO81wTMy3wCGh4rFJi/23bOAaGInN6LLwjIIfM+L4vs+Z4FNIoApFUXC/hM6bRLT04Cc1MTrExxtqq3bbpeGSsQ0t5OwGt8XgLS/vM8C6d9ry6pwbH8eBQizQ6Vivh808g0gWjFWR2hE+/p26T+9+qHYDvShOk64bVypeM+BWI6E8BUgmmJLd1JejwI858fthBwZEWaDEBbnleDukUK0mHWhop3vADkpsrZbSgKY77cthVQbRESoCQCzKkrF66rlJiMf3wKiiZM8+q0Vc/luImOopPBBWNwlB/f/pKdosCmC6259Dcipu4m2zWkcS43sBex6ZVROgFArsjC1olj4ftv9jADk1Odgg7vKqzxGXcvNR1+o9GiYUYAkH7t2U1F+AR40coiPHiF930bgqS5ZeNzPj1OpaphxgJx67GqgiymePOnK0JmJvgehYwdfaGvDvPG9hL3b1SsqbMYCchYobZgBYfyIakVrKictgafbWvFcpoJxUsSMB+SkEMkvXm24CwJ3gtBfzijzmBeBHSAsas7Gwkk+/jJlpCoMSAq1tM0iiDBdCIw0IqZX2xKhUggs8eJ0dLs1Z0DOo/CaGPVJJDABAuMADLW7GA773wzCikAAb4wOCue3YnG4s2bDMSA6lVteTQOzc3ALBG4GYZhOM7WaCWwCYV1A4M3RQbFNreTUzIYBMVGXtbVU3pqFGwMCN4AwHkCBCTdOmDRBYLkgvBuIY8OocuHcrtpO9M6BGAyIBJGTW6USvisIQ4kwBMBgAM6ejQY0AtgqBLaQwGYh8HcvL1SSUBYpLhgQKTJ2dKJBg1ZcQQFoJ9xcAqAvCH0gkvCYvwhbIaC9M2hbimwXCXyFHHzOMJiX9HyWDIg9uqb1qv2i37U7erS2oDAnG/kUQBcIZCUNCXGRwPHWNjTn5KLx6GEcmtTXvxMC04rlYgMGxEXxObT6CjAg6teIM3RRAQbERfE5tPoKMCDq14gzdFEBBsRF8Tm0+gowIOrXiDN0UQEGxEXxObT6CjAg6teIM3RRAQbERfE5tPoKMCDq14gzdFEBBsRF8Tm0+gowIOrXiDN0UQEGxEXxObT6CjAg6teIM3RRAQbERfE5tPoKMCDq14gzdFEBBsRF8Tm0+gowIOrXiDN0UYH/B5cLzl8Du8twAAAAAElFTkSuQmCC;" vertex="1" parent="1">
          <mxGeometry x="140" y="180" width="100" height="100" as="geometry" />
        </mxCell>
        <mxCell id="O8asKUsupp3e0jE8GUq2-8" value="" style="edgeStyle=orthogonalEdgeStyle;rounded=0;orthogonalLoop=1;jettySize=auto;html=1;" edge="1" parent="1" source="O8asKUsupp3e0jE8GUq2-6" target="v3j8jryw-0ta3aJHkXqk-13">
          <mxGeometry relative="1" as="geometry" />
        </mxCell>
        <mxCell id="O8asKUsupp3e0jE8GUq2-6" value="" style="shape=image;verticalLabelPosition=bottom;labelBackgroundColor=default;verticalAlign=top;aspect=fixed;imageAspect=0;image=data:image/png,iVBORw0KGgoAAAANSUhEUgAAAMgAAADICAYAAACtWK6eAAAAAXNSR0IArs4c6QAAF3tJREFUeF7tnXl0VdW9x7/7JiEJJEByM4BKESwOsLQVpPa9gmJb2yW2Qi6DIOB6gNb1XhVeQV1Wfctni9aioKK2CwGxUocyXEBLaMS1tMLr6pOCdcLnwDxkuPcmQAIhJPf+3jqXMOaGe4Z9ztnn3N/5hz+yf8P+/vaHM9w9CPDFCrACnSogWBtWgBXoXAEGhEcHK3AeBRgQHh6sAAPCY4AVMKcA30HM6cZWGaIAA5IhheZumlOAATGnG1tliAIMSIYUmrtpTgEGxJxubJUhCjAgGVJo7qY5BRgQc7qxVYYowIBkSKG5m+YUYEDM6cZWGaIAA5IhheZumlOAATGnG1tliAIMSIYUmrtpTgEGxJxubJUhCjAgLhX61d1U1LU7erS2oDAnG/kUQBcIZCXTIcRFAsdb29Cck4vGo4dxaFJf0eBSqhkdlgGxqfyrG+hitOIKCmAAgEsA9AWhDwQGWwpJ2AqBvQB2A9guEvgKOfi8okjssuSXjVMqwIBIGBgaDET4riAMJcIQIAlBoQTXRlw0AtgqBLaQwGYh8HeGxoh8qdsyICY0XFtL5Yks3EgCN4AwHkCBCTdOmDRBYHmC8G5OHBtGlYtaJ4L6KQYDorOaa2I0MEG4BQI3gzBMp5lazQQ2gbCurRVvju8ttqmVnJrZMCDnqcuaGPVJJDABAuMADFWzhKaz2gzCikAAb4wOCu2dhq8UCjAgKUQJRylEhOlCYGQmjBoiVAqBJaESEc6E/hrpIwPSrtarB6kovw13QeBOEPobEdE3bQV2gLCoORsLJ/Xkz8paXTMekOQXqARmgPAL3wx0GR0hPC2ysSDTv4RlLCDLa6hfdjZmA/i5jPHkYx8viCw8lamgZBwgfz5IRcfjeBCEe308qOV3TeCp5iY8nmm/6GcUIOEIzYLAPPmjJ4M8EmaHSsX8TOlxRgCyup5uojiWQqA8Uwpraz8JtSILUyuKxXpb4yjg3NeAJB+nWjEXAncooLX/UiAsbs7B/X7+4uVbQFZHaGICmC8EevlvZKrTIyLUBIBZFaXidXWykpeJ7wCpJMo9FsXzfNeQN0h0eSIsPtSEe6b2E8d0tfdII18BsiJCI7IEXgPQ2yP6+y3NakG4raJUvOeXjvkGEP5CpdCQFJgdCvrjS5cvAAlH6SUAUxUaIpwKsDRUIqZ5XQhPA9I+TWSZZ6efe330pMuf8D9tcUwZ30vsTNdU1b97FpBwPQ1DAhtVFZbzOq1APIHrxpUJT9bKk4Bo09EBrOJB6B0FEnGMHVsuPFczzwESjtE0EJZ4Z2hwpqcUEJgeCgrtfdEzl6cACUdJm3n7vGfU5URTKXB3qES84BVpPAPIyjqaGQjgGa8Iy3l2rkAigf8cWyae9YJGngCE7xxeGEqGc/TEnUR5QPidw/DA846BB95JlAZkZS2NCWRhpXcqzpmaUGCMyptFKAvIijoanhXA+yYEZxOvKRDA8FCx2KRi2koC0r5efIeKgnFO9iggstBPxXXvSgISjtAmCHzPnlKwVyUVENgUCorhquWmHCA88VC1IeJoPspNcFQKkHCMZoF4UwVHh6RqwRTbFEIZQFZHaAQJvKtavTgf5xWIE24Yp8iiKyUAWbqT8noUQnsp55WAzo9HFSNW5wXRb6QQLW4npwQg4Qgt4jXkbg8FxeITFodKxZ1uZ+U6INruI3RiHTlfrMBZCrSvb3d1txRXAdF2VM9rxTbemofJSKWAtqVQbg4G/sTFneZdBYQfrRiMtAq4/KjlGiDJ7UATqEwrEDfIeAVEACPd2ubUNUDCEarhvXIzfuzrE4BQGyoVruyQ6QogvIeVvnHBrc5QwKUfEB0H5NXdVJTfDfVcfFbAqAJdslHs9Au744CEY/Sk2cNr4keb0LTrC6O6cnuXFCjodzmy8rvJiy7wVCgo7pPnML0nRwFJbvQWh+FNxI7X12HLH57Dx//4IH2PuIVSClxx1bcx6MafIjhYztHybW3o7+RGdI4CEo6StiOJoTMBW2r34eVZ05UqOidjXIEpjz2Hrhdfatywo8ULoRJxtwxHenw4BojZu8empx7EZx9u0dMXbqOwAlcOGYp/nTVHSoZOLq5yDJBwhOZDGD9qeeXMyYhFI1KEZSfuKnDHolXI6lpgPQmBp0NBMcu6o/QeHAFEm1KS32buy9XCST9O3wtu4QkFJjz0OHoMHCIl1+ZsFDtx9JsjgISj9ACA35hRJhUgu2tqzLhiG4cUyAoEcFFZWYdoMgEB8MtQiXjC7i45A0iMtoPQ30xnUgGyq7oah48cMeOObRxQoLh7d/sBEdgRCopL7O6O7YBY3YmdAbF7CMj37wggJ9K2fU8t2wFZFaF1QmCk2TIwIGaVc8/OKUCIUDmmVNxsZ09tBWRNjPokCHusdIABsaKeO7ZOAaL1LiDwjdFBsdeuntoKSDhC90FgrpXkGRAr6rlj6yQgINwfKhVP2tVTewGJkjY3ZKiV5BkQK+q5Y+soIMDmUIn4jl09tQ2Q5dU0MDsHn1lN3OuA5Ofl4ZL+/VFbV4dINGpVDk/YOwyI9pg1aHRQbLNDHNsAsfLbx5kd9TIgU6dMwX/87Ge4sPcFyS797sUXMWfub+2oo1I+nQbEzt9E7AMkRhtlHM/sVUBmz5iB2TNmdhi4L7y4EI/NtfRaphQMqZJxHBAb9/W1BZC1tVQez4KUn7u9CEhncGiD6UBNNa4ZJmfqt6qkOA4IgKw4eo0qF7WyNbEFkJVRmhwAlslI1muAnA8OTY+9+/bh2hHXy5BGWR9uACKAKRUl4o+yRbEFkHCMloAwTUayXgIkHRyaHr9fvBi/fsLUtDQZcjriww1AIPBSKCikLxyyB5AoNQKQMK8Z8AogeuB4a30l7rrnHkcGqZtBXAEEaAqViELZ/ZYOiNmFUZ11zAuAMBxnV88lQGDHQirpgITraQISkLafquqAMBwd/2tzCxAEMDFULN6QeReRDsjqGM0jgrTVXioDwnCkHopuASIE5lcExWylAQlH6T0A0j7TqAoIw9H5MHQLEAB/DZWIEaoDchiAtJclFQFhOM4/BF0EpDFUIrorC4jsF3Sto6oBwnCkH34uAiL9RV3qO8jqOrqJAnJ3bFcJEIYjPRxaC1cBSWBkRZlYry/T9K2kAhKO0gwAz6YPq7+FKoAwHPpr5iYgAGaGSsQC/dmev6VsQDQ4NEikXSoAwnAYK6fLgCwIlYiOs0SNdeFUa9mArAEwymQuKc3cBoThMF5NlwFZGyoRo41nndpCLiAR2gKBwbKSc/slneEwV0lXASFsDZUKObvTAZALSJTInKSdW7l1B2E4zFfSVUAAhEqEtHEtzZEmZ9gngDAc5uFw+yuWFl9JQOw6OcrpOwjDYQ0OFQBpPoLiSX1Fg/WeSHzEsuNHQqffQSZPmIC5cx47r66ZMmXdyuBy+xFL5qxeaY9Yy2voyuxsfGxF2FS2Tt5B3lqxEkOuvrrTLjAcp6XJyc5Gl5yclFp179oNpUU9O/zt+5PvRDc5h+icd5h9tmHdtJ0fvN/hJLNAINBUWVn5DyNjVBogq6P0HQL+10hwPW2dBOTA19sZDh1F6V1SgtKeRTpaKtlkWzweH/vOO+98ric7aYCE62kYEtioJ6iRNk4CsvZPyzF0SMcvhHrvHBf27p3c5ueHN3w/2cW/btqE+x9+yEh3lW+bn5uLAX2+YVueTc3NOHa8BcWF3REIBOyK81pVVdUkPc7lAdJA1yMObaq71MtJQFK9g+iF49IBA/Digueg/XvmNW/Bs5i3QNrMB6namnFWVFiIPuW9zJjqsvlsx3bEEwlcVFaenNNl0/VFVVXV5Xp8MyDnqPQv116LsaNGo6ysDP/8+CNdg7szOE66vvb667F3/z499VC+TVFhd/QpL7ctz93V1Wg61ox+vS9A17w8u+J8WVVVdZke5/IA8cEjlh7Bzm2TDg6t/Y9u+Sk+3WbLzphmUrZkYzcglpLTb+w8IH54Sdev74mWeuDYX30A1914I5qPHTPqXsn2JwGJHjqIao/tNVxWVITy4qCmq/OA+OEzr5ERqQcOzd9Dj/43li6TsoeekfRsa3smIAci3jp9uLy42D1A/PBDod5RpRcOv72ga/owIHpHyTnt/DLVJF33MxkOBiTd6Ejzd79MVuysm5kOBwPCgHSqAMNxQhp+xLIASdhnC6ZOSsFwnB4UDIgVQKLkuyW3mhyvv/wHXJ/mTA8/vpCnGgoMiDVAfLdpg3b3eG/9X86rSqbAYecj1hWXX45Lv/lNvFVZiUQiYWEUdm7q6mdeLS0/bvujHcC58e0NnaqeSXDYBci4igo8M/dJCCGw4Pe/wxPz5vkTEL9uHKfdQc6dhKhVMNPgsAOQSbdqi9TmJOHQrpdeeQUP/+pRnwLSQBdTHB0WqljprZOzeTvLU1tEtWzRYvTseWIRUPOx5uSJtX6apau3RjLfQf5t0mQ8/uhpGGrranFTRQVqaqUfNZjsnuuPWO2PWb7cvDovLw9Xf+tbSaEbGxt9M/lQLxgn28kCRLtzPPnY6eXN+/bvR+i2idD+tetSBZCMOP7AriKq7lcGIFOn3I7HHnnkVFc1KG4ZP862O8fJQEoAkkkH6Kg+mO3IzyogbsGhziNWhh3BZscgVNmnFUDOhWP33r2omHCr7XcOte4gkl/UVXhJV3nAOp2bWUD+/Y478V8PPHAqXQ2OW8aNRcTBNSVKPGK1v6hn3DHQTg9Ut+KZAUQFOJR5xEoCEqMlIEyTUUS+g8hQUZ4Po4BcM3gw3ly+4lQC23fsSH6tcvLOodQjlpbM6ihNJkDKMjoGRN7gluHJKCA/+sEP8fLChcnQGhyjbh2P+obTu4KWlZbiByNuwLq/rMfhRu3Bw75LmUestbVUHs9CjYyuMiAyVJTnwygg2i/kv/31HJQEg7j3wV+eBcegKwYi/PrrKCwowIcffYSbx4TkJZrCkzKAtD9mbQRhmNUepwJkv8fWQlvVQCV7bSseDRJt0wYra9K/fdVV+NMry5JwaFfmARIl7ZPFb6wWNxUgVn2yvVUFhCVANDhW/PFVdOvaNZlIbV0dRo0fjz379lpN7Lz2St1B1sRoYILwmdUeMyBWFbTD3jwg58IRq69P/oq+c9cuOxI9y6dSgCQfs6L0AYChVnrOgFhRzy5bc4BcNmAA1oXD6Jp/4s7R2NSE0beOx+dffGFXoooDEqH7IDDXSu8ZECvq2WVrDhDt7BVt/2PtOtp8FKGJE/Hxp5/alWQHv8rdQdbEqE+CsMeKAgyIFfXssjUHyIjh1+G1pUuTcNw65XZs+eeHdiWY0q9ygGhZrorQOiEw0qwSDIhZ5ey0MweIltGVgwYllwvs2mPp/01TnVMSkHCUtI/bq0z1CAADYlY5O+3MA2JnVul8KwlI8mU9RttB6J+uA6n+zoCYUc1uGwZEqsJhC7+JMCBSSyHJGQMiScgTbl49SEX5bag345QBMaOa3TYMiHSFwzGaD8IvjDpmQIwq5kR7BkS6ymaPR2BApJdCgkMGRIKIHV2Eo/Q8gJ8bcc6AGFHLqbYMiC1KL6+hftnZ2GHEOQNiRC2n2jIgtikdjtGTINyrN8Cb909HtU9OiNXbZ/XbMSC21ejPB6nouIEvWp+8/Az+tmG9bfmwYzMKMCBmVNNtE47QLAjo3qH4b/MfxidbNuv2zw3tVoABsVthhCNUAwHdJ9J/tWoJdny0Fbu2f217bhwgnQIMSDqFLP99dT3dRAlUWnakoIOuLY3oHZW6h3eHXiYCWdjZe5Djvf/i/Q14b+E8SysKHU+6PaCyc7E6EyQcoUUQuMMtweyK27MpiuChA3a5P+V3d6/L0ZbVxfY4ZwZgQByUW3thb2nFNiHQy8Gwtocqa9iHwqOmZtYYyq062A9H8woN2VhtzIBYVdCg/eoITSSB1wyaKd38osjXyD1+1PYcYz1642BBqe1x+A7iqMQdg/ntUav/gU8hyJ5z9s5Ur7FrEeqK+jhaPb6DOCr3iWCVRLnHYsmTqXq7EF5qyJy2Fnyj1plNCFpy8rGvbIDU/NM5Y0DSKWTT31dEaESWwLs2uXfMbbfmQ+hVv9uReCQEdlxwpSOxTgZhQByV++xgRn9AdDHVTkMXNdai+LA9Z+ylCrq3/DIcz851TAoGxDGpUwcKR+klAFNdTsN0+PL6PShoPmja3qhhbXFfNOX3MGpmuj0DYlo6eYbhGEnZ11deRvo99an9El3ajuk3sNiyobAc9d11T0iwGA1gQCxLaN2B2cVV1iNb8yCI0P/AJ9acGLQ+kt8DNcV9DVqZb34mIIebjph35IJlt/w8lBcHtchfVlVVXaYnhROntyt4hetpGBLYqGBqnaaU29qMi+q+cjTl1uxc7CnXVWspeZ0ERIqzTpxEDx5ES+tx5OZ0QUn72fSS43kfEE0Qq3tqSRY1rbvCow0oa7B3h/JUSWhfsrQvWk5cdgNSWx9Dbf3pWQi9ioMoKy6W3TV/AJKEJEbTQFgiWyHz/qhT0+DhGvRsjJh3bdJS+y2kJSevE2u54NgNyK7qAzh85PSjW4+CAvTtJf3nMf8A0n4n0daxa+vZXb+Ch6rRs8l5CMx0/HhOHvaWXWrGtFObHR9swoZn50j1eaYz7XCk2KHTXwG1R6wLSqRPp9lSVVV1jZ5OyP3vRU9Ek21W1tHMQADPmDSXZqYB0u3YIWn+7HREIiAdkJYjTXht5u043mzPXLN4PI4D0eipd5ALS0sRCARky/RIVVXVr/Q49Qwgqt1J9Ijr1zbV//cJPlq3Cg37jc8YONZ4OHr86BG3/odpJKI1b7/99qN6a+MpQNR8J9ErNbeDwPRQUGg/BHvm8hwgmrIra2lMIAsrPaMyJ6opMCZUIsJek8KTgGgir6ij4VkBvO81wTMy3wCGh4rFJi/23bOAaGInN6LLwjIIfM+L4vs+Z4FNIoApFUXC/hM6bRLT04Cc1MTrExxtqq3bbpeGSsQ0t5OwGt8XgLS/vM8C6d9ry6pwbH8eBQizQ6Vivh808g0gWjFWR2hE+/p26T+9+qHYDvShOk64bVypeM+BWI6E8BUgmmJLd1JejwI858fthBwZEWaDEBbnleDukUK0mHWhop3vADkpsrZbSgKY77cthVQbRESoCQCzKkrF66rlJiMf3wKiiZM8+q0Vc/luImOopPBBWNwlB/f/pKdosCmC6259Dcipu4m2zWkcS43sBex6ZVROgFArsjC1olj4ftv9jADk1Odgg7vKqzxGXcvNR1+o9GiYUYAkH7t2U1F+AR40coiPHiF930bgqS5ZeNzPj1OpaphxgJx67GqgiymePOnK0JmJvgehYwdfaGvDvPG9hL3b1SsqbMYCchYobZgBYfyIakVrKictgafbWvFcpoJxUsSMB+SkEMkvXm24CwJ3gtBfzijzmBeBHSAsas7Gwkk+/jJlpCoMSAq1tM0iiDBdCIw0IqZX2xKhUggs8eJ0dLs1Z0DOo/CaGPVJJDABAuMADLW7GA773wzCikAAb4wOCue3YnG4s2bDMSA6lVteTQOzc3ALBG4GYZhOM7WaCWwCYV1A4M3RQbFNreTUzIYBMVGXtbVU3pqFGwMCN4AwHkCBCTdOmDRBYLkgvBuIY8OocuHcrtpO9M6BGAyIBJGTW6USvisIQ4kwBMBgAM6ejQY0AtgqBLaQwGYh8HcvL1SSUBYpLhgQKTJ2dKJBg1ZcQQFoJ9xcAqAvCH0gkvCYvwhbIaC9M2hbimwXCXyFHHzOMJiX9HyWDIg9uqb1qv2i37U7erS2oDAnG/kUQBcIZCUNCXGRwPHWNjTn5KLx6GEcmtTXvxMC04rlYgMGxEXxObT6CjAg6teIM3RRAQbERfE5tPoKMCDq14gzdFEBBsRF8Tm0+gowIOrXiDN0UQEGxEXxObT6CjAg6teIM3RRAQbERfE5tPoKMCDq14gzdFEBBsRF8Tm0+gowIOrXiDN0UQEGxEXxObT6CjAg6teIM3RRAQbERfE5tPoKMCDq14gzdFEBBsRF8Tm0+gowIOrXiDN0UYH/B5cLzl8Du8twAAAAAElFTkSuQmCC;" vertex="1" parent="1">
          <mxGeometry x="150" y="355" width="90" height="90" as="geometry" />
        </mxCell>
        <mxCell id="O8asKUsupp3e0jE8GUq2-15" value="" style="edgeStyle=orthogonalEdgeStyle;rounded=0;orthogonalLoop=1;jettySize=auto;html=1;" edge="1" parent="1" source="O8asKUsupp3e0jE8GUq2-9" target="v3j8jryw-0ta3aJHkXqk-14">
          <mxGeometry relative="1" as="geometry" />
        </mxCell>
        <mxCell id="O8asKUsupp3e0jE8GUq2-9" value="" style="shape=image;verticalLabelPosition=bottom;labelBackgroundColor=default;verticalAlign=top;aspect=fixed;imageAspect=0;image=data:image/png,iVBORw0KGgoAAAANSUhEUgAAAMgAAADICAYAAACtWK6eAAAAAXNSR0IArs4c6QAAF3tJREFUeF7tnXl0VdW9x7/7JiEJJEByM4BKESwOsLQVpPa9gmJb2yW2Qi6DIOB6gNb1XhVeQV1Wfctni9aioKK2CwGxUocyXEBLaMS1tMLr6pOCdcLnwDxkuPcmQAIhJPf+3jqXMOaGe4Z9ztnn3N/5hz+yf8P+/vaHM9w9CPDFCrACnSogWBtWgBXoXAEGhEcHK3AeBRgQHh6sAAPCY4AVMKcA30HM6cZWGaIAA5IhheZumlOAATGnG1tliAIMSIYUmrtpTgEGxJxubJUhCjAgGVJo7qY5BRgQc7qxVYYowIBkSKG5m+YUYEDM6cZWGaIAA5IhheZumlOAATGnG1tliAIMSIYUmrtpTgEGxJxubJUhCjAgLhX61d1U1LU7erS2oDAnG/kUQBcIZCXTIcRFAsdb29Cck4vGo4dxaFJf0eBSqhkdlgGxqfyrG+hitOIKCmAAgEsA9AWhDwQGWwpJ2AqBvQB2A9guEvgKOfi8okjssuSXjVMqwIBIGBgaDET4riAMJcIQIAlBoQTXRlw0AtgqBLaQwGYh8HeGxoh8qdsyICY0XFtL5Yks3EgCN4AwHkCBCTdOmDRBYHmC8G5OHBtGlYtaJ4L6KQYDorOaa2I0MEG4BQI3gzBMp5lazQQ2gbCurRVvju8ttqmVnJrZMCDnqcuaGPVJJDABAuMADFWzhKaz2gzCikAAb4wOCu2dhq8UCjAgKUQJRylEhOlCYGQmjBoiVAqBJaESEc6E/hrpIwPSrtarB6kovw13QeBOEPobEdE3bQV2gLCoORsLJ/Xkz8paXTMekOQXqARmgPAL3wx0GR0hPC2ysSDTv4RlLCDLa6hfdjZmA/i5jPHkYx8viCw8lamgZBwgfz5IRcfjeBCEe308qOV3TeCp5iY8nmm/6GcUIOEIzYLAPPmjJ4M8EmaHSsX8TOlxRgCyup5uojiWQqA8Uwpraz8JtSILUyuKxXpb4yjg3NeAJB+nWjEXAncooLX/UiAsbs7B/X7+4uVbQFZHaGICmC8EevlvZKrTIyLUBIBZFaXidXWykpeJ7wCpJMo9FsXzfNeQN0h0eSIsPtSEe6b2E8d0tfdII18BsiJCI7IEXgPQ2yP6+y3NakG4raJUvOeXjvkGEP5CpdCQFJgdCvrjS5cvAAlH6SUAUxUaIpwKsDRUIqZ5XQhPA9I+TWSZZ6efe330pMuf8D9tcUwZ30vsTNdU1b97FpBwPQ1DAhtVFZbzOq1APIHrxpUJT9bKk4Bo09EBrOJB6B0FEnGMHVsuPFczzwESjtE0EJZ4Z2hwpqcUEJgeCgrtfdEzl6cACUdJm3n7vGfU5URTKXB3qES84BVpPAPIyjqaGQjgGa8Iy3l2rkAigf8cWyae9YJGngCE7xxeGEqGc/TEnUR5QPidw/DA846BB95JlAZkZS2NCWRhpXcqzpmaUGCMyptFKAvIijoanhXA+yYEZxOvKRDA8FCx2KRi2koC0r5efIeKgnFO9iggstBPxXXvSgISjtAmCHzPnlKwVyUVENgUCorhquWmHCA88VC1IeJoPspNcFQKkHCMZoF4UwVHh6RqwRTbFEIZQFZHaAQJvKtavTgf5xWIE24Yp8iiKyUAWbqT8noUQnsp55WAzo9HFSNW5wXRb6QQLW4npwQg4Qgt4jXkbg8FxeITFodKxZ1uZ+U6INruI3RiHTlfrMBZCrSvb3d1txRXAdF2VM9rxTbemofJSKWAtqVQbg4G/sTFneZdBYQfrRiMtAq4/KjlGiDJ7UATqEwrEDfIeAVEACPd2ubUNUDCEarhvXIzfuzrE4BQGyoVruyQ6QogvIeVvnHBrc5QwKUfEB0H5NXdVJTfDfVcfFbAqAJdslHs9Au744CEY/Sk2cNr4keb0LTrC6O6cnuXFCjodzmy8rvJiy7wVCgo7pPnML0nRwFJbvQWh+FNxI7X12HLH57Dx//4IH2PuIVSClxx1bcx6MafIjhYztHybW3o7+RGdI4CEo6StiOJoTMBW2r34eVZ05UqOidjXIEpjz2Hrhdfatywo8ULoRJxtwxHenw4BojZu8empx7EZx9u0dMXbqOwAlcOGYp/nTVHSoZOLq5yDJBwhOZDGD9qeeXMyYhFI1KEZSfuKnDHolXI6lpgPQmBp0NBMcu6o/QeHAFEm1KS32buy9XCST9O3wtu4QkFJjz0OHoMHCIl1+ZsFDtx9JsjgISj9ACA35hRJhUgu2tqzLhiG4cUyAoEcFFZWYdoMgEB8MtQiXjC7i45A0iMtoPQ30xnUgGyq7oah48cMeOObRxQoLh7d/sBEdgRCopL7O6O7YBY3YmdAbF7CMj37wggJ9K2fU8t2wFZFaF1QmCk2TIwIGaVc8/OKUCIUDmmVNxsZ09tBWRNjPokCHusdIABsaKeO7ZOAaL1LiDwjdFBsdeuntoKSDhC90FgrpXkGRAr6rlj6yQgINwfKhVP2tVTewGJkjY3ZKiV5BkQK+q5Y+soIMDmUIn4jl09tQ2Q5dU0MDsHn1lN3OuA5Ofl4ZL+/VFbV4dINGpVDk/YOwyI9pg1aHRQbLNDHNsAsfLbx5kd9TIgU6dMwX/87Ge4sPcFyS797sUXMWfub+2oo1I+nQbEzt9E7AMkRhtlHM/sVUBmz5iB2TNmdhi4L7y4EI/NtfRaphQMqZJxHBAb9/W1BZC1tVQez4KUn7u9CEhncGiD6UBNNa4ZJmfqt6qkOA4IgKw4eo0qF7WyNbEFkJVRmhwAlslI1muAnA8OTY+9+/bh2hHXy5BGWR9uACKAKRUl4o+yRbEFkHCMloAwTUayXgIkHRyaHr9fvBi/fsLUtDQZcjriww1AIPBSKCikLxyyB5AoNQKQMK8Z8AogeuB4a30l7rrnHkcGqZtBXAEEaAqViELZ/ZYOiNmFUZ11zAuAMBxnV88lQGDHQirpgITraQISkLafquqAMBwd/2tzCxAEMDFULN6QeReRDsjqGM0jgrTVXioDwnCkHopuASIE5lcExWylAQlH6T0A0j7TqAoIw9H5MHQLEAB/DZWIEaoDchiAtJclFQFhOM4/BF0EpDFUIrorC4jsF3Sto6oBwnCkH34uAiL9RV3qO8jqOrqJAnJ3bFcJEIYjPRxaC1cBSWBkRZlYry/T9K2kAhKO0gwAz6YPq7+FKoAwHPpr5iYgAGaGSsQC/dmev6VsQDQ4NEikXSoAwnAYK6fLgCwIlYiOs0SNdeFUa9mArAEwymQuKc3cBoThMF5NlwFZGyoRo41nndpCLiAR2gKBwbKSc/slneEwV0lXASFsDZUKObvTAZALSJTInKSdW7l1B2E4zFfSVUAAhEqEtHEtzZEmZ9gngDAc5uFw+yuWFl9JQOw6OcrpOwjDYQ0OFQBpPoLiSX1Fg/WeSHzEsuNHQqffQSZPmIC5cx47r66ZMmXdyuBy+xFL5qxeaY9Yy2voyuxsfGxF2FS2Tt5B3lqxEkOuvrrTLjAcp6XJyc5Gl5yclFp179oNpUU9O/zt+5PvRDc5h+icd5h9tmHdtJ0fvN/hJLNAINBUWVn5DyNjVBogq6P0HQL+10hwPW2dBOTA19sZDh1F6V1SgtKeRTpaKtlkWzweH/vOO+98ric7aYCE62kYEtioJ6iRNk4CsvZPyzF0SMcvhHrvHBf27p3c5ueHN3w/2cW/btqE+x9+yEh3lW+bn5uLAX2+YVueTc3NOHa8BcWF3REIBOyK81pVVdUkPc7lAdJA1yMObaq71MtJQFK9g+iF49IBA/Digueg/XvmNW/Bs5i3QNrMB6namnFWVFiIPuW9zJjqsvlsx3bEEwlcVFaenNNl0/VFVVXV5Xp8MyDnqPQv116LsaNGo6ysDP/8+CNdg7szOE66vvb667F3/z499VC+TVFhd/QpL7ctz93V1Wg61ox+vS9A17w8u+J8WVVVdZke5/IA8cEjlh7Bzm2TDg6t/Y9u+Sk+3WbLzphmUrZkYzcglpLTb+w8IH54Sdev74mWeuDYX30A1914I5qPHTPqXsn2JwGJHjqIao/tNVxWVITy4qCmq/OA+OEzr5ERqQcOzd9Dj/43li6TsoeekfRsa3smIAci3jp9uLy42D1A/PBDod5RpRcOv72ga/owIHpHyTnt/DLVJF33MxkOBiTd6Ejzd79MVuysm5kOBwPCgHSqAMNxQhp+xLIASdhnC6ZOSsFwnB4UDIgVQKLkuyW3mhyvv/wHXJ/mTA8/vpCnGgoMiDVAfLdpg3b3eG/9X86rSqbAYecj1hWXX45Lv/lNvFVZiUQiYWEUdm7q6mdeLS0/bvujHcC58e0NnaqeSXDYBci4igo8M/dJCCGw4Pe/wxPz5vkTEL9uHKfdQc6dhKhVMNPgsAOQSbdqi9TmJOHQrpdeeQUP/+pRnwLSQBdTHB0WqljprZOzeTvLU1tEtWzRYvTseWIRUPOx5uSJtX6apau3RjLfQf5t0mQ8/uhpGGrranFTRQVqaqUfNZjsnuuPWO2PWb7cvDovLw9Xf+tbSaEbGxt9M/lQLxgn28kCRLtzPPnY6eXN+/bvR+i2idD+tetSBZCMOP7AriKq7lcGIFOn3I7HHnnkVFc1KG4ZP862O8fJQEoAkkkH6Kg+mO3IzyogbsGhziNWhh3BZscgVNmnFUDOhWP33r2omHCr7XcOte4gkl/UVXhJV3nAOp2bWUD+/Y478V8PPHAqXQ2OW8aNRcTBNSVKPGK1v6hn3DHQTg9Ut+KZAUQFOJR5xEoCEqMlIEyTUUS+g8hQUZ4Po4BcM3gw3ly+4lQC23fsSH6tcvLOodQjlpbM6ihNJkDKMjoGRN7gluHJKCA/+sEP8fLChcnQGhyjbh2P+obTu4KWlZbiByNuwLq/rMfhRu3Bw75LmUestbVUHs9CjYyuMiAyVJTnwygg2i/kv/31HJQEg7j3wV+eBcegKwYi/PrrKCwowIcffYSbx4TkJZrCkzKAtD9mbQRhmNUepwJkv8fWQlvVQCV7bSseDRJt0wYra9K/fdVV+NMry5JwaFfmARIl7ZPFb6wWNxUgVn2yvVUFhCVANDhW/PFVdOvaNZlIbV0dRo0fjz379lpN7Lz2St1B1sRoYILwmdUeMyBWFbTD3jwg58IRq69P/oq+c9cuOxI9y6dSgCQfs6L0AYChVnrOgFhRzy5bc4BcNmAA1oXD6Jp/4s7R2NSE0beOx+dffGFXoooDEqH7IDDXSu8ZECvq2WVrDhDt7BVt/2PtOtp8FKGJE/Hxp5/alWQHv8rdQdbEqE+CsMeKAgyIFfXssjUHyIjh1+G1pUuTcNw65XZs+eeHdiWY0q9ygGhZrorQOiEw0qwSDIhZ5ey0MweIltGVgwYllwvs2mPp/01TnVMSkHCUtI/bq0z1CAADYlY5O+3MA2JnVul8KwlI8mU9RttB6J+uA6n+zoCYUc1uGwZEqsJhC7+JMCBSSyHJGQMiScgTbl49SEX5bag345QBMaOa3TYMiHSFwzGaD8IvjDpmQIwq5kR7BkS6ymaPR2BApJdCgkMGRIKIHV2Eo/Q8gJ8bcc6AGFHLqbYMiC1KL6+hftnZ2GHEOQNiRC2n2jIgtikdjtGTINyrN8Cb909HtU9OiNXbZ/XbMSC21ejPB6nouIEvWp+8/Az+tmG9bfmwYzMKMCBmVNNtE47QLAjo3qH4b/MfxidbNuv2zw3tVoABsVthhCNUAwHdJ9J/tWoJdny0Fbu2f217bhwgnQIMSDqFLP99dT3dRAlUWnakoIOuLY3oHZW6h3eHXiYCWdjZe5Djvf/i/Q14b+E8SysKHU+6PaCyc7E6EyQcoUUQuMMtweyK27MpiuChA3a5P+V3d6/L0ZbVxfY4ZwZgQByUW3thb2nFNiHQy8Gwtocqa9iHwqOmZtYYyq062A9H8woN2VhtzIBYVdCg/eoITSSB1wyaKd38osjXyD1+1PYcYz1642BBqe1x+A7iqMQdg/ntUav/gU8hyJ5z9s5Ur7FrEeqK+jhaPb6DOCr3iWCVRLnHYsmTqXq7EF5qyJy2Fnyj1plNCFpy8rGvbIDU/NM5Y0DSKWTT31dEaESWwLs2uXfMbbfmQ+hVv9uReCQEdlxwpSOxTgZhQByV++xgRn9AdDHVTkMXNdai+LA9Z+ylCrq3/DIcz851TAoGxDGpUwcKR+klAFNdTsN0+PL6PShoPmja3qhhbXFfNOX3MGpmuj0DYlo6eYbhGEnZ11deRvo99an9El3ajuk3sNiyobAc9d11T0iwGA1gQCxLaN2B2cVV1iNb8yCI0P/AJ9acGLQ+kt8DNcV9DVqZb34mIIebjph35IJlt/w8lBcHtchfVlVVXaYnhROntyt4hetpGBLYqGBqnaaU29qMi+q+cjTl1uxc7CnXVWspeZ0ERIqzTpxEDx5ES+tx5OZ0QUn72fSS43kfEE0Qq3tqSRY1rbvCow0oa7B3h/JUSWhfsrQvWk5cdgNSWx9Dbf3pWQi9ioMoKy6W3TV/AJKEJEbTQFgiWyHz/qhT0+DhGvRsjJh3bdJS+y2kJSevE2u54NgNyK7qAzh85PSjW4+CAvTtJf3nMf8A0n4n0daxa+vZXb+Ch6rRs8l5CMx0/HhOHvaWXWrGtFObHR9swoZn50j1eaYz7XCk2KHTXwG1R6wLSqRPp9lSVVV1jZ5OyP3vRU9Ek21W1tHMQADPmDSXZqYB0u3YIWn+7HREIiAdkJYjTXht5u043mzPXLN4PI4D0eipd5ALS0sRCARky/RIVVXVr/Q49Qwgqt1J9Ijr1zbV//cJPlq3Cg37jc8YONZ4OHr86BG3/odpJKI1b7/99qN6a+MpQNR8J9ErNbeDwPRQUGg/BHvm8hwgmrIra2lMIAsrPaMyJ6opMCZUIsJek8KTgGgir6ij4VkBvO81wTMy3wCGh4rFJi/23bOAaGInN6LLwjIIfM+L4vs+Z4FNIoApFUXC/hM6bRLT04Cc1MTrExxtqq3bbpeGSsQ0t5OwGt8XgLS/vM8C6d9ry6pwbH8eBQizQ6Vivh808g0gWjFWR2hE+/p26T+9+qHYDvShOk64bVypeM+BWI6E8BUgmmJLd1JejwI858fthBwZEWaDEBbnleDukUK0mHWhop3vADkpsrZbSgKY77cthVQbRESoCQCzKkrF66rlJiMf3wKiiZM8+q0Vc/luImOopPBBWNwlB/f/pKdosCmC6259Dcipu4m2zWkcS43sBex6ZVROgFArsjC1olj4ftv9jADk1Odgg7vKqzxGXcvNR1+o9GiYUYAkH7t2U1F+AR40coiPHiF930bgqS5ZeNzPj1OpaphxgJx67GqgiymePOnK0JmJvgehYwdfaGvDvPG9hL3b1SsqbMYCchYobZgBYfyIakVrKictgafbWvFcpoJxUsSMB+SkEMkvXm24CwJ3gtBfzijzmBeBHSAsas7Gwkk+/jJlpCoMSAq1tM0iiDBdCIw0IqZX2xKhUggs8eJ0dLs1Z0DOo/CaGPVJJDABAuMADLW7GA773wzCikAAb4wOCue3YnG4s2bDMSA6lVteTQOzc3ALBG4GYZhOM7WaCWwCYV1A4M3RQbFNreTUzIYBMVGXtbVU3pqFGwMCN4AwHkCBCTdOmDRBYLkgvBuIY8OocuHcrtpO9M6BGAyIBJGTW6USvisIQ4kwBMBgAM6ejQY0AtgqBLaQwGYh8HcvL1SSUBYpLhgQKTJ2dKJBg1ZcQQFoJ9xcAqAvCH0gkvCYvwhbIaC9M2hbimwXCXyFHHzOMJiX9HyWDIg9uqb1qv2i37U7erS2oDAnG/kUQBcIZCUNCXGRwPHWNjTn5KLx6GEcmtTXvxMC04rlYgMGxEXxObT6CjAg6teIM3RRAQbERfE5tPoKMCDq14gzdFEBBsRF8Tm0+gowIOrXiDN0UQEGxEXxObT6CjAg6teIM3RRAQbERfE5tPoKMCDq14gzdFEBBsRF8Tm0+gowIOrXiDN0UQEGxEXxObT6CjAg6teIM3RRAQbERfE5tPoKMCDq14gzdFEBBsRF8Tm0+gowIOrXiDN0UYH/B5cLzl8Du8twAAAAAElFTkSuQmCC;" vertex="1" parent="1">
          <mxGeometry x="310" y="425" width="90" height="90" as="geometry" />
        </mxCell>
        <mxCell id="O8asKUsupp3e0jE8GUq2-16" value="" style="edgeStyle=orthogonalEdgeStyle;rounded=0;orthogonalLoop=1;jettySize=auto;html=1;" edge="1" parent="1" source="O8asKUsupp3e0jE8GUq2-10" target="v3j8jryw-0ta3aJHkXqk-15">
          <mxGeometry relative="1" as="geometry" />
        </mxCell>
        <mxCell id="O8asKUsupp3e0jE8GUq2-10" value="" style="shape=image;verticalLabelPosition=bottom;labelBackgroundColor=default;verticalAlign=top;aspect=fixed;imageAspect=0;image=data:image/png,iVBORw0KGgoAAAANSUhEUgAAAMgAAADICAYAAACtWK6eAAAAAXNSR0IArs4c6QAAF3tJREFUeF7tnXl0VdW9x7/7JiEJJEByM4BKESwOsLQVpPa9gmJb2yW2Qi6DIOB6gNb1XhVeQV1Wfctni9aioKK2CwGxUocyXEBLaMS1tMLr6pOCdcLnwDxkuPcmQAIhJPf+3jqXMOaGe4Z9ztnn3N/5hz+yf8P+/vaHM9w9CPDFCrACnSogWBtWgBXoXAEGhEcHK3AeBRgQHh6sAAPCY4AVMKcA30HM6cZWGaIAA5IhheZumlOAATGnG1tliAIMSIYUmrtpTgEGxJxubJUhCjAgGVJo7qY5BRgQc7qxVYYowIBkSKG5m+YUYEDM6cZWGaIAA5IhheZumlOAATGnG1tliAIMSIYUmrtpTgEGxJxubJUhCjAgLhX61d1U1LU7erS2oDAnG/kUQBcIZCXTIcRFAsdb29Cck4vGo4dxaFJf0eBSqhkdlgGxqfyrG+hitOIKCmAAgEsA9AWhDwQGWwpJ2AqBvQB2A9guEvgKOfi8okjssuSXjVMqwIBIGBgaDET4riAMJcIQIAlBoQTXRlw0AtgqBLaQwGYh8HeGxoh8qdsyICY0XFtL5Yks3EgCN4AwHkCBCTdOmDRBYHmC8G5OHBtGlYtaJ4L6KQYDorOaa2I0MEG4BQI3gzBMp5lazQQ2gbCurRVvju8ttqmVnJrZMCDnqcuaGPVJJDABAuMADFWzhKaz2gzCikAAb4wOCu2dhq8UCjAgKUQJRylEhOlCYGQmjBoiVAqBJaESEc6E/hrpIwPSrtarB6kovw13QeBOEPobEdE3bQV2gLCoORsLJ/Xkz8paXTMekOQXqARmgPAL3wx0GR0hPC2ysSDTv4RlLCDLa6hfdjZmA/i5jPHkYx8viCw8lamgZBwgfz5IRcfjeBCEe308qOV3TeCp5iY8nmm/6GcUIOEIzYLAPPmjJ4M8EmaHSsX8TOlxRgCyup5uojiWQqA8Uwpraz8JtSILUyuKxXpb4yjg3NeAJB+nWjEXAncooLX/UiAsbs7B/X7+4uVbQFZHaGICmC8EevlvZKrTIyLUBIBZFaXidXWykpeJ7wCpJMo9FsXzfNeQN0h0eSIsPtSEe6b2E8d0tfdII18BsiJCI7IEXgPQ2yP6+y3NakG4raJUvOeXjvkGEP5CpdCQFJgdCvrjS5cvAAlH6SUAUxUaIpwKsDRUIqZ5XQhPA9I+TWSZZ6efe330pMuf8D9tcUwZ30vsTNdU1b97FpBwPQ1DAhtVFZbzOq1APIHrxpUJT9bKk4Bo09EBrOJB6B0FEnGMHVsuPFczzwESjtE0EJZ4Z2hwpqcUEJgeCgrtfdEzl6cACUdJm3n7vGfU5URTKXB3qES84BVpPAPIyjqaGQjgGa8Iy3l2rkAigf8cWyae9YJGngCE7xxeGEqGc/TEnUR5QPidw/DA846BB95JlAZkZS2NCWRhpXcqzpmaUGCMyptFKAvIijoanhXA+yYEZxOvKRDA8FCx2KRi2koC0r5efIeKgnFO9iggstBPxXXvSgISjtAmCHzPnlKwVyUVENgUCorhquWmHCA88VC1IeJoPspNcFQKkHCMZoF4UwVHh6RqwRTbFEIZQFZHaAQJvKtavTgf5xWIE24Yp8iiKyUAWbqT8noUQnsp55WAzo9HFSNW5wXRb6QQLW4npwQg4Qgt4jXkbg8FxeITFodKxZ1uZ+U6INruI3RiHTlfrMBZCrSvb3d1txRXAdF2VM9rxTbemofJSKWAtqVQbg4G/sTFneZdBYQfrRiMtAq4/KjlGiDJ7UATqEwrEDfIeAVEACPd2ubUNUDCEarhvXIzfuzrE4BQGyoVruyQ6QogvIeVvnHBrc5QwKUfEB0H5NXdVJTfDfVcfFbAqAJdslHs9Au744CEY/Sk2cNr4keb0LTrC6O6cnuXFCjodzmy8rvJiy7wVCgo7pPnML0nRwFJbvQWh+FNxI7X12HLH57Dx//4IH2PuIVSClxx1bcx6MafIjhYztHybW3o7+RGdI4CEo6StiOJoTMBW2r34eVZ05UqOidjXIEpjz2Hrhdfatywo8ULoRJxtwxHenw4BojZu8empx7EZx9u0dMXbqOwAlcOGYp/nTVHSoZOLq5yDJBwhOZDGD9qeeXMyYhFI1KEZSfuKnDHolXI6lpgPQmBp0NBMcu6o/QeHAFEm1KS32buy9XCST9O3wtu4QkFJjz0OHoMHCIl1+ZsFDtx9JsjgISj9ACA35hRJhUgu2tqzLhiG4cUyAoEcFFZWYdoMgEB8MtQiXjC7i45A0iMtoPQ30xnUgGyq7oah48cMeOObRxQoLh7d/sBEdgRCopL7O6O7YBY3YmdAbF7CMj37wggJ9K2fU8t2wFZFaF1QmCk2TIwIGaVc8/OKUCIUDmmVNxsZ09tBWRNjPokCHusdIABsaKeO7ZOAaL1LiDwjdFBsdeuntoKSDhC90FgrpXkGRAr6rlj6yQgINwfKhVP2tVTewGJkjY3ZKiV5BkQK+q5Y+soIMDmUIn4jl09tQ2Q5dU0MDsHn1lN3OuA5Ofl4ZL+/VFbV4dINGpVDk/YOwyI9pg1aHRQbLNDHNsAsfLbx5kd9TIgU6dMwX/87Ge4sPcFyS797sUXMWfub+2oo1I+nQbEzt9E7AMkRhtlHM/sVUBmz5iB2TNmdhi4L7y4EI/NtfRaphQMqZJxHBAb9/W1BZC1tVQez4KUn7u9CEhncGiD6UBNNa4ZJmfqt6qkOA4IgKw4eo0qF7WyNbEFkJVRmhwAlslI1muAnA8OTY+9+/bh2hHXy5BGWR9uACKAKRUl4o+yRbEFkHCMloAwTUayXgIkHRyaHr9fvBi/fsLUtDQZcjriww1AIPBSKCikLxyyB5AoNQKQMK8Z8AogeuB4a30l7rrnHkcGqZtBXAEEaAqViELZ/ZYOiNmFUZ11zAuAMBxnV88lQGDHQirpgITraQISkLafquqAMBwd/2tzCxAEMDFULN6QeReRDsjqGM0jgrTVXioDwnCkHopuASIE5lcExWylAQlH6T0A0j7TqAoIw9H5MHQLEAB/DZWIEaoDchiAtJclFQFhOM4/BF0EpDFUIrorC4jsF3Sto6oBwnCkH34uAiL9RV3qO8jqOrqJAnJ3bFcJEIYjPRxaC1cBSWBkRZlYry/T9K2kAhKO0gwAz6YPq7+FKoAwHPpr5iYgAGaGSsQC/dmev6VsQDQ4NEikXSoAwnAYK6fLgCwIlYiOs0SNdeFUa9mArAEwymQuKc3cBoThMF5NlwFZGyoRo41nndpCLiAR2gKBwbKSc/slneEwV0lXASFsDZUKObvTAZALSJTInKSdW7l1B2E4zFfSVUAAhEqEtHEtzZEmZ9gngDAc5uFw+yuWFl9JQOw6OcrpOwjDYQ0OFQBpPoLiSX1Fg/WeSHzEsuNHQqffQSZPmIC5cx47r66ZMmXdyuBy+xFL5qxeaY9Yy2voyuxsfGxF2FS2Tt5B3lqxEkOuvrrTLjAcp6XJyc5Gl5yclFp179oNpUU9O/zt+5PvRDc5h+icd5h9tmHdtJ0fvN/hJLNAINBUWVn5DyNjVBogq6P0HQL+10hwPW2dBOTA19sZDh1F6V1SgtKeRTpaKtlkWzweH/vOO+98ric7aYCE62kYEtioJ6iRNk4CsvZPyzF0SMcvhHrvHBf27p3c5ueHN3w/2cW/btqE+x9+yEh3lW+bn5uLAX2+YVueTc3NOHa8BcWF3REIBOyK81pVVdUkPc7lAdJA1yMObaq71MtJQFK9g+iF49IBA/Digueg/XvmNW/Bs5i3QNrMB6namnFWVFiIPuW9zJjqsvlsx3bEEwlcVFaenNNl0/VFVVXV5Xp8MyDnqPQv116LsaNGo6ysDP/8+CNdg7szOE66vvb667F3/z499VC+TVFhd/QpL7ctz93V1Wg61ox+vS9A17w8u+J8WVVVdZke5/IA8cEjlh7Bzm2TDg6t/Y9u+Sk+3WbLzphmUrZkYzcglpLTb+w8IH54Sdev74mWeuDYX30A1914I5qPHTPqXsn2JwGJHjqIao/tNVxWVITy4qCmq/OA+OEzr5ERqQcOzd9Dj/43li6TsoeekfRsa3smIAci3jp9uLy42D1A/PBDod5RpRcOv72ga/owIHpHyTnt/DLVJF33MxkOBiTd6Ejzd79MVuysm5kOBwPCgHSqAMNxQhp+xLIASdhnC6ZOSsFwnB4UDIgVQKLkuyW3mhyvv/wHXJ/mTA8/vpCnGgoMiDVAfLdpg3b3eG/9X86rSqbAYecj1hWXX45Lv/lNvFVZiUQiYWEUdm7q6mdeLS0/bvujHcC58e0NnaqeSXDYBci4igo8M/dJCCGw4Pe/wxPz5vkTEL9uHKfdQc6dhKhVMNPgsAOQSbdqi9TmJOHQrpdeeQUP/+pRnwLSQBdTHB0WqljprZOzeTvLU1tEtWzRYvTseWIRUPOx5uSJtX6apau3RjLfQf5t0mQ8/uhpGGrranFTRQVqaqUfNZjsnuuPWO2PWb7cvDovLw9Xf+tbSaEbGxt9M/lQLxgn28kCRLtzPPnY6eXN+/bvR+i2idD+tetSBZCMOP7AriKq7lcGIFOn3I7HHnnkVFc1KG4ZP862O8fJQEoAkkkH6Kg+mO3IzyogbsGhziNWhh3BZscgVNmnFUDOhWP33r2omHCr7XcOte4gkl/UVXhJV3nAOp2bWUD+/Y478V8PPHAqXQ2OW8aNRcTBNSVKPGK1v6hn3DHQTg9Ut+KZAUQFOJR5xEoCEqMlIEyTUUS+g8hQUZ4Po4BcM3gw3ly+4lQC23fsSH6tcvLOodQjlpbM6ihNJkDKMjoGRN7gluHJKCA/+sEP8fLChcnQGhyjbh2P+obTu4KWlZbiByNuwLq/rMfhRu3Bw75LmUestbVUHs9CjYyuMiAyVJTnwygg2i/kv/31HJQEg7j3wV+eBcegKwYi/PrrKCwowIcffYSbx4TkJZrCkzKAtD9mbQRhmNUepwJkv8fWQlvVQCV7bSseDRJt0wYra9K/fdVV+NMry5JwaFfmARIl7ZPFb6wWNxUgVn2yvVUFhCVANDhW/PFVdOvaNZlIbV0dRo0fjz379lpN7Lz2St1B1sRoYILwmdUeMyBWFbTD3jwg58IRq69P/oq+c9cuOxI9y6dSgCQfs6L0AYChVnrOgFhRzy5bc4BcNmAA1oXD6Jp/4s7R2NSE0beOx+dffGFXoooDEqH7IDDXSu8ZECvq2WVrDhDt7BVt/2PtOtp8FKGJE/Hxp5/alWQHv8rdQdbEqE+CsMeKAgyIFfXssjUHyIjh1+G1pUuTcNw65XZs+eeHdiWY0q9ygGhZrorQOiEw0qwSDIhZ5ey0MweIltGVgwYllwvs2mPp/01TnVMSkHCUtI/bq0z1CAADYlY5O+3MA2JnVul8KwlI8mU9RttB6J+uA6n+zoCYUc1uGwZEqsJhC7+JMCBSSyHJGQMiScgTbl49SEX5bag345QBMaOa3TYMiHSFwzGaD8IvjDpmQIwq5kR7BkS6ymaPR2BApJdCgkMGRIKIHV2Eo/Q8gJ8bcc6AGFHLqbYMiC1KL6+hftnZ2GHEOQNiRC2n2jIgtikdjtGTINyrN8Cb909HtU9OiNXbZ/XbMSC21ejPB6nouIEvWp+8/Az+tmG9bfmwYzMKMCBmVNNtE47QLAjo3qH4b/MfxidbNuv2zw3tVoABsVthhCNUAwHdJ9J/tWoJdny0Fbu2f217bhwgnQIMSDqFLP99dT3dRAlUWnakoIOuLY3oHZW6h3eHXiYCWdjZe5Djvf/i/Q14b+E8SysKHU+6PaCyc7E6EyQcoUUQuMMtweyK27MpiuChA3a5P+V3d6/L0ZbVxfY4ZwZgQByUW3thb2nFNiHQy8Gwtocqa9iHwqOmZtYYyq062A9H8woN2VhtzIBYVdCg/eoITSSB1wyaKd38osjXyD1+1PYcYz1642BBqe1x+A7iqMQdg/ntUav/gU8hyJ5z9s5Ur7FrEeqK+jhaPb6DOCr3iWCVRLnHYsmTqXq7EF5qyJy2Fnyj1plNCFpy8rGvbIDU/NM5Y0DSKWTT31dEaESWwLs2uXfMbbfmQ+hVv9uReCQEdlxwpSOxTgZhQByV++xgRn9AdDHVTkMXNdai+LA9Z+ylCrq3/DIcz851TAoGxDGpUwcKR+klAFNdTsN0+PL6PShoPmja3qhhbXFfNOX3MGpmuj0DYlo6eYbhGEnZ11deRvo99an9El3ajuk3sNiyobAc9d11T0iwGA1gQCxLaN2B2cVV1iNb8yCI0P/AJ9acGLQ+kt8DNcV9DVqZb34mIIebjph35IJlt/w8lBcHtchfVlVVXaYnhROntyt4hetpGBLYqGBqnaaU29qMi+q+cjTl1uxc7CnXVWspeZ0ERIqzTpxEDx5ES+tx5OZ0QUn72fSS43kfEE0Qq3tqSRY1rbvCow0oa7B3h/JUSWhfsrQvWk5cdgNSWx9Dbf3pWQi9ioMoKy6W3TV/AJKEJEbTQFgiWyHz/qhT0+DhGvRsjJh3bdJS+y2kJSevE2u54NgNyK7qAzh85PSjW4+CAvTtJf3nMf8A0n4n0daxa+vZXb+Ch6rRs8l5CMx0/HhOHvaWXWrGtFObHR9swoZn50j1eaYz7XCk2KHTXwG1R6wLSqRPp9lSVVV1jZ5OyP3vRU9Ek21W1tHMQADPmDSXZqYB0u3YIWn+7HREIiAdkJYjTXht5u043mzPXLN4PI4D0eipd5ALS0sRCARky/RIVVXVr/Q49Qwgqt1J9Ijr1zbV//cJPlq3Cg37jc8YONZ4OHr86BG3/odpJKI1b7/99qN6a+MpQNR8J9ErNbeDwPRQUGg/BHvm8hwgmrIra2lMIAsrPaMyJ6opMCZUIsJek8KTgGgir6ij4VkBvO81wTMy3wCGh4rFJi/23bOAaGInN6LLwjIIfM+L4vs+Z4FNIoApFUXC/hM6bRLT04Cc1MTrExxtqq3bbpeGSsQ0t5OwGt8XgLS/vM8C6d9ry6pwbH8eBQizQ6Vivh808g0gWjFWR2hE+/p26T+9+qHYDvShOk64bVypeM+BWI6E8BUgmmJLd1JejwI858fthBwZEWaDEBbnleDukUK0mHWhop3vADkpsrZbSgKY77cthVQbRESoCQCzKkrF66rlJiMf3wKiiZM8+q0Vc/luImOopPBBWNwlB/f/pKdosCmC6259Dcipu4m2zWkcS43sBex6ZVROgFArsjC1olj4ftv9jADk1Odgg7vKqzxGXcvNR1+o9GiYUYAkH7t2U1F+AR40coiPHiF930bgqS5ZeNzPj1OpaphxgJx67GqgiymePOnK0JmJvgehYwdfaGvDvPG9hL3b1SsqbMYCchYobZgBYfyIakVrKictgafbWvFcpoJxUsSMB+SkEMkvXm24CwJ3gtBfzijzmBeBHSAsas7Gwkk+/jJlpCoMSAq1tM0iiDBdCIw0IqZX2xKhUggs8eJ0dLs1Z0DOo/CaGPVJJDABAuMADLW7GA773wzCikAAb4wOCue3YnG4s2bDMSA6lVteTQOzc3ALBG4GYZhOM7WaCWwCYV1A4M3RQbFNreTUzIYBMVGXtbVU3pqFGwMCN4AwHkCBCTdOmDRBYLkgvBuIY8OocuHcrtpO9M6BGAyIBJGTW6USvisIQ4kwBMBgAM6ejQY0AtgqBLaQwGYh8HcvL1SSUBYpLhgQKTJ2dKJBg1ZcQQFoJ9xcAqAvCH0gkvCYvwhbIaC9M2hbimwXCXyFHHzOMJiX9HyWDIg9uqb1qv2i37U7erS2oDAnG/kUQBcIZCUNCXGRwPHWNjTn5KLx6GEcmtTXvxMC04rlYgMGxEXxObT6CjAg6teIM3RRAQbERfE5tPoKMCDq14gzdFEBBsRF8Tm0+gowIOrXiDN0UQEGxEXxObT6CjAg6teIM3RRAQbERfE5tPoKMCDq14gzdFEBBsRF8Tm0+gowIOrXiDN0UQEGxEXxObT6CjAg6teIM3RRAQbERfE5tPoKMCDq14gzdFEBBsRF8Tm0+gowIOrXiDN0UYH/B5cLzl8Du8twAAAAAElFTkSuQmCC;" vertex="1" parent="1">
          <mxGeometry x="490" y="420" width="90" height="90" as="geometry" />
        </mxCell>
        <mxCell id="O8asKUsupp3e0jE8GUq2-17" value="" style="edgeStyle=orthogonalEdgeStyle;rounded=0;orthogonalLoop=1;jettySize=auto;html=1;" edge="1" parent="1" source="O8asKUsupp3e0jE8GUq2-11" target="O8asKUsupp3e0jE8GUq2-1">
          <mxGeometry relative="1" as="geometry" />
        </mxCell>
        <mxCell id="O8asKUsupp3e0jE8GUq2-11" value="" style="shape=image;verticalLabelPosition=bottom;labelBackgroundColor=default;verticalAlign=top;aspect=fixed;imageAspect=0;image=data:image/png,iVBORw0KGgoAAAANSUhEUgAAAMgAAADICAYAAACtWK6eAAAAAXNSR0IArs4c6QAAF3tJREFUeF7tnXl0VdW9x7/7JiEJJEByM4BKESwOsLQVpPa9gmJb2yW2Qi6DIOB6gNb1XhVeQV1Wfctni9aioKK2CwGxUocyXEBLaMS1tMLr6pOCdcLnwDxkuPcmQAIhJPf+3jqXMOaGe4Z9ztnn3N/5hz+yf8P+/vaHM9w9CPDFCrACnSogWBtWgBXoXAEGhEcHK3AeBRgQHh6sAAPCY4AVMKcA30HM6cZWGaIAA5IhheZumlOAATGnG1tliAIMSIYUmrtpTgEGxJxubJUhCjAgGVJo7qY5BRgQc7qxVYYowIBkSKG5m+YUYEDM6cZWGaIAA5IhheZumlOAATGnG1tliAIMSIYUmrtpTgEGxJxubJUhCjAgLhX61d1U1LU7erS2oDAnG/kUQBcIZCXTIcRFAsdb29Cck4vGo4dxaFJf0eBSqhkdlgGxqfyrG+hitOIKCmAAgEsA9AWhDwQGWwpJ2AqBvQB2A9guEvgKOfi8okjssuSXjVMqwIBIGBgaDET4riAMJcIQIAlBoQTXRlw0AtgqBLaQwGYh8HeGxoh8qdsyICY0XFtL5Yks3EgCN4AwHkCBCTdOmDRBYHmC8G5OHBtGlYtaJ4L6KQYDorOaa2I0MEG4BQI3gzBMp5lazQQ2gbCurRVvju8ttqmVnJrZMCDnqcuaGPVJJDABAuMADFWzhKaz2gzCikAAb4wOCu2dhq8UCjAgKUQJRylEhOlCYGQmjBoiVAqBJaESEc6E/hrpIwPSrtarB6kovw13QeBOEPobEdE3bQV2gLCoORsLJ/Xkz8paXTMekOQXqARmgPAL3wx0GR0hPC2ysSDTv4RlLCDLa6hfdjZmA/i5jPHkYx8viCw8lamgZBwgfz5IRcfjeBCEe308qOV3TeCp5iY8nmm/6GcUIOEIzYLAPPmjJ4M8EmaHSsX8TOlxRgCyup5uojiWQqA8Uwpraz8JtSILUyuKxXpb4yjg3NeAJB+nWjEXAncooLX/UiAsbs7B/X7+4uVbQFZHaGICmC8EevlvZKrTIyLUBIBZFaXidXWykpeJ7wCpJMo9FsXzfNeQN0h0eSIsPtSEe6b2E8d0tfdII18BsiJCI7IEXgPQ2yP6+y3NakG4raJUvOeXjvkGEP5CpdCQFJgdCvrjS5cvAAlH6SUAUxUaIpwKsDRUIqZ5XQhPA9I+TWSZZ6efe330pMuf8D9tcUwZ30vsTNdU1b97FpBwPQ1DAhtVFZbzOq1APIHrxpUJT9bKk4Bo09EBrOJB6B0FEnGMHVsuPFczzwESjtE0EJZ4Z2hwpqcUEJgeCgrtfdEzl6cACUdJm3n7vGfU5URTKXB3qES84BVpPAPIyjqaGQjgGa8Iy3l2rkAigf8cWyae9YJGngCE7xxeGEqGc/TEnUR5QPidw/DA846BB95JlAZkZS2NCWRhpXcqzpmaUGCMyptFKAvIijoanhXA+yYEZxOvKRDA8FCx2KRi2koC0r5efIeKgnFO9iggstBPxXXvSgISjtAmCHzPnlKwVyUVENgUCorhquWmHCA88VC1IeJoPspNcFQKkHCMZoF4UwVHh6RqwRTbFEIZQFZHaAQJvKtavTgf5xWIE24Yp8iiKyUAWbqT8noUQnsp55WAzo9HFSNW5wXRb6QQLW4npwQg4Qgt4jXkbg8FxeITFodKxZ1uZ+U6INruI3RiHTlfrMBZCrSvb3d1txRXAdF2VM9rxTbemofJSKWAtqVQbg4G/sTFneZdBYQfrRiMtAq4/KjlGiDJ7UATqEwrEDfIeAVEACPd2ubUNUDCEarhvXIzfuzrE4BQGyoVruyQ6QogvIeVvnHBrc5QwKUfEB0H5NXdVJTfDfVcfFbAqAJdslHs9Au744CEY/Sk2cNr4keb0LTrC6O6cnuXFCjodzmy8rvJiy7wVCgo7pPnML0nRwFJbvQWh+FNxI7X12HLH57Dx//4IH2PuIVSClxx1bcx6MafIjhYztHybW3o7+RGdI4CEo6StiOJoTMBW2r34eVZ05UqOidjXIEpjz2Hrhdfatywo8ULoRJxtwxHenw4BojZu8empx7EZx9u0dMXbqOwAlcOGYp/nTVHSoZOLq5yDJBwhOZDGD9qeeXMyYhFI1KEZSfuKnDHolXI6lpgPQmBp0NBMcu6o/QeHAFEm1KS32buy9XCST9O3wtu4QkFJjz0OHoMHCIl1+ZsFDtx9JsjgISj9ACA35hRJhUgu2tqzLhiG4cUyAoEcFFZWYdoMgEB8MtQiXjC7i45A0iMtoPQ30xnUgGyq7oah48cMeOObRxQoLh7d/sBEdgRCopL7O6O7YBY3YmdAbF7CMj37wggJ9K2fU8t2wFZFaF1QmCk2TIwIGaVc8/OKUCIUDmmVNxsZ09tBWRNjPokCHusdIABsaKeO7ZOAaL1LiDwjdFBsdeuntoKSDhC90FgrpXkGRAr6rlj6yQgINwfKhVP2tVTewGJkjY3ZKiV5BkQK+q5Y+soIMDmUIn4jl09tQ2Q5dU0MDsHn1lN3OuA5Ofl4ZL+/VFbV4dINGpVDk/YOwyI9pg1aHRQbLNDHNsAsfLbx5kd9TIgU6dMwX/87Ge4sPcFyS797sUXMWfub+2oo1I+nQbEzt9E7AMkRhtlHM/sVUBmz5iB2TNmdhi4L7y4EI/NtfRaphQMqZJxHBAb9/W1BZC1tVQez4KUn7u9CEhncGiD6UBNNa4ZJmfqt6qkOA4IgKw4eo0qF7WyNbEFkJVRmhwAlslI1muAnA8OTY+9+/bh2hHXy5BGWR9uACKAKRUl4o+yRbEFkHCMloAwTUayXgIkHRyaHr9fvBi/fsLUtDQZcjriww1AIPBSKCikLxyyB5AoNQKQMK8Z8AogeuB4a30l7rrnHkcGqZtBXAEEaAqViELZ/ZYOiNmFUZ11zAuAMBxnV88lQGDHQirpgITraQISkLafquqAMBwd/2tzCxAEMDFULN6QeReRDsjqGM0jgrTVXioDwnCkHopuASIE5lcExWylAQlH6T0A0j7TqAoIw9H5MHQLEAB/DZWIEaoDchiAtJclFQFhOM4/BF0EpDFUIrorC4jsF3Sto6oBwnCkH34uAiL9RV3qO8jqOrqJAnJ3bFcJEIYjPRxaC1cBSWBkRZlYry/T9K2kAhKO0gwAz6YPq7+FKoAwHPpr5iYgAGaGSsQC/dmev6VsQDQ4NEikXSoAwnAYK6fLgCwIlYiOs0SNdeFUa9mArAEwymQuKc3cBoThMF5NlwFZGyoRo41nndpCLiAR2gKBwbKSc/slneEwV0lXASFsDZUKObvTAZALSJTInKSdW7l1B2E4zFfSVUAAhEqEtHEtzZEmZ9gngDAc5uFw+yuWFl9JQOw6OcrpOwjDYQ0OFQBpPoLiSX1Fg/WeSHzEsuNHQqffQSZPmIC5cx47r66ZMmXdyuBy+xFL5qxeaY9Yy2voyuxsfGxF2FS2Tt5B3lqxEkOuvrrTLjAcp6XJyc5Gl5yclFp179oNpUU9O/zt+5PvRDc5h+icd5h9tmHdtJ0fvN/hJLNAINBUWVn5DyNjVBogq6P0HQL+10hwPW2dBOTA19sZDh1F6V1SgtKeRTpaKtlkWzweH/vOO+98ric7aYCE62kYEtioJ6iRNk4CsvZPyzF0SMcvhHrvHBf27p3c5ueHN3w/2cW/btqE+x9+yEh3lW+bn5uLAX2+YVueTc3NOHa8BcWF3REIBOyK81pVVdUkPc7lAdJA1yMObaq71MtJQFK9g+iF49IBA/Digueg/XvmNW/Bs5i3QNrMB6namnFWVFiIPuW9zJjqsvlsx3bEEwlcVFaenNNl0/VFVVXV5Xp8MyDnqPQv116LsaNGo6ysDP/8+CNdg7szOE66vvb667F3/z499VC+TVFhd/QpL7ctz93V1Wg61ox+vS9A17w8u+J8WVVVdZke5/IA8cEjlh7Bzm2TDg6t/Y9u+Sk+3WbLzphmUrZkYzcglpLTb+w8IH54Sdev74mWeuDYX30A1914I5qPHTPqXsn2JwGJHjqIao/tNVxWVITy4qCmq/OA+OEzr5ERqQcOzd9Dj/43li6TsoeekfRsa3smIAci3jp9uLy42D1A/PBDod5RpRcOv72ga/owIHpHyTnt/DLVJF33MxkOBiTd6Ejzd79MVuysm5kOBwPCgHSqAMNxQhp+xLIASdhnC6ZOSsFwnB4UDIgVQKLkuyW3mhyvv/wHXJ/mTA8/vpCnGgoMiDVAfLdpg3b3eG/9X86rSqbAYecj1hWXX45Lv/lNvFVZiUQiYWEUdm7q6mdeLS0/bvujHcC58e0NnaqeSXDYBci4igo8M/dJCCGw4Pe/wxPz5vkTEL9uHKfdQc6dhKhVMNPgsAOQSbdqi9TmJOHQrpdeeQUP/+pRnwLSQBdTHB0WqljprZOzeTvLU1tEtWzRYvTseWIRUPOx5uSJtX6apau3RjLfQf5t0mQ8/uhpGGrranFTRQVqaqUfNZjsnuuPWO2PWb7cvDovLw9Xf+tbSaEbGxt9M/lQLxgn28kCRLtzPPnY6eXN+/bvR+i2idD+tetSBZCMOP7AriKq7lcGIFOn3I7HHnnkVFc1KG4ZP862O8fJQEoAkkkH6Kg+mO3IzyogbsGhziNWhh3BZscgVNmnFUDOhWP33r2omHCr7XcOte4gkl/UVXhJV3nAOp2bWUD+/Y478V8PPHAqXQ2OW8aNRcTBNSVKPGK1v6hn3DHQTg9Ut+KZAUQFOJR5xEoCEqMlIEyTUUS+g8hQUZ4Po4BcM3gw3ly+4lQC23fsSH6tcvLOodQjlpbM6ihNJkDKMjoGRN7gluHJKCA/+sEP8fLChcnQGhyjbh2P+obTu4KWlZbiByNuwLq/rMfhRu3Bw75LmUestbVUHs9CjYyuMiAyVJTnwygg2i/kv/31HJQEg7j3wV+eBcegKwYi/PrrKCwowIcffYSbx4TkJZrCkzKAtD9mbQRhmNUepwJkv8fWQlvVQCV7bSseDRJt0wYra9K/fdVV+NMry5JwaFfmARIl7ZPFb6wWNxUgVn2yvVUFhCVANDhW/PFVdOvaNZlIbV0dRo0fjz379lpN7Lz2St1B1sRoYILwmdUeMyBWFbTD3jwg58IRq69P/oq+c9cuOxI9y6dSgCQfs6L0AYChVnrOgFhRzy5bc4BcNmAA1oXD6Jp/4s7R2NSE0beOx+dffGFXoooDEqH7IDDXSu8ZECvq2WVrDhDt7BVt/2PtOtp8FKGJE/Hxp5/alWQHv8rdQdbEqE+CsMeKAgyIFfXssjUHyIjh1+G1pUuTcNw65XZs+eeHdiWY0q9ygGhZrorQOiEw0qwSDIhZ5ey0MweIltGVgwYllwvs2mPp/01TnVMSkHCUtI/bq0z1CAADYlY5O+3MA2JnVul8KwlI8mU9RttB6J+uA6n+zoCYUc1uGwZEqsJhC7+JMCBSSyHJGQMiScgTbl49SEX5bag345QBMaOa3TYMiHSFwzGaD8IvjDpmQIwq5kR7BkS6ymaPR2BApJdCgkMGRIKIHV2Eo/Q8gJ8bcc6AGFHLqbYMiC1KL6+hftnZ2GHEOQNiRC2n2jIgtikdjtGTINyrN8Cb909HtU9OiNXbZ/XbMSC21ejPB6nouIEvWp+8/Az+tmG9bfmwYzMKMCBmVNNtE47QLAjo3qH4b/MfxidbNuv2zw3tVoABsVthhCNUAwHdJ9J/tWoJdny0Fbu2f217bhwgnQIMSDqFLP99dT3dRAlUWnakoIOuLY3oHZW6h3eHXiYCWdjZe5Djvf/i/Q14b+E8SysKHU+6PaCyc7E6EyQcoUUQuMMtweyK27MpiuChA3a5P+V3d6/L0ZbVxfY4ZwZgQByUW3thb2nFNiHQy8Gwtocqa9iHwqOmZtYYyq062A9H8woN2VhtzIBYVdCg/eoITSSB1wyaKd38osjXyD1+1PYcYz1642BBqe1x+A7iqMQdg/ntUav/gU8hyJ5z9s5Ur7FrEeqK+jhaPb6DOCr3iWCVRLnHYsmTqXq7EF5qyJy2Fnyj1plNCFpy8rGvbIDU/NM5Y0DSKWTT31dEaESWwLs2uXfMbbfmQ+hVv9uReCQEdlxwpSOxTgZhQByV++xgRn9AdDHVTkMXNdai+LA9Z+ylCrq3/DIcz851TAoGxDGpUwcKR+klAFNdTsN0+PL6PShoPmja3qhhbXFfNOX3MGpmuj0DYlo6eYbhGEnZ11deRvo99an9El3ajuk3sNiyobAc9d11T0iwGA1gQCxLaN2B2cVV1iNb8yCI0P/AJ9acGLQ+kt8DNcV9DVqZb34mIIebjph35IJlt/w8lBcHtchfVlVVXaYnhROntyt4hetpGBLYqGBqnaaU29qMi+q+cjTl1uxc7CnXVWspeZ0ERIqzTpxEDx5ES+tx5OZ0QUn72fSS43kfEE0Qq3tqSRY1rbvCow0oa7B3h/JUSWhfsrQvWk5cdgNSWx9Dbf3pWQi9ioMoKy6W3TV/AJKEJEbTQFgiWyHz/qhT0+DhGvRsjJh3bdJS+y2kJSevE2u54NgNyK7qAzh85PSjW4+CAvTtJf3nMf8A0n4n0daxa+vZXb+Ch6rRs8l5CMx0/HhOHvaWXWrGtFObHR9swoZn50j1eaYz7XCk2KHTXwG1R6wLSqRPp9lSVVV1jZ5OyP3vRU9Ek21W1tHMQADPmDSXZqYB0u3YIWn+7HREIiAdkJYjTXht5u043mzPXLN4PI4D0eipd5ALS0sRCARky/RIVVXVr/Q49Qwgqt1J9Ijr1zbV//cJPlq3Cg37jc8YONZ4OHr86BG3/odpJKI1b7/99qN6a+MpQNR8J9ErNbeDwPRQUGg/BHvm8hwgmrIra2lMIAsrPaMyJ6opMCZUIsJek8KTgGgir6ij4VkBvO81wTMy3wCGh4rFJi/23bOAaGInN6LLwjIIfM+L4vs+Z4FNIoApFUXC/hM6bRLT04Cc1MTrExxtqq3bbpeGSsQ0t5OwGt8XgLS/vM8C6d9ry6pwbH8eBQizQ6Vivh808g0gWjFWR2hE+/p26T+9+qHYDvShOk64bVypeM+BWI6E8BUgmmJLd1JejwI858fthBwZEWaDEBbnleDukUK0mHWhop3vADkpsrZbSgKY77cthVQbRESoCQCzKkrF66rlJiMf3wKiiZM8+q0Vc/luImOopPBBWNwlB/f/pKdosCmC6259Dcipu4m2zWkcS43sBex6ZVROgFArsjC1olj4ftv9jADk1Odgg7vKqzxGXcvNR1+o9GiYUYAkH7t2U1F+AR40coiPHiF930bgqS5ZeNzPj1OpaphxgJx67GqgiymePOnK0JmJvgehYwdfaGvDvPG9hL3b1SsqbMYCchYobZgBYfyIakVrKictgafbWvFcpoJxUsSMB+SkEMkvXm24CwJ3gtBfzijzmBeBHSAsas7Gwkk+/jJlpCoMSAq1tM0iiDBdCIw0IqZX2xKhUggs8eJ0dLs1Z0DOo/CaGPVJJDABAuMADLW7GA773wzCikAAb4wOCue3YnG4s2bDMSA6lVteTQOzc3ALBG4GYZhOM7WaCWwCYV1A4M3RQbFNreTUzIYBMVGXtbVU3pqFGwMCN4AwHkCBCTdOmDRBYLkgvBuIY8OocuHcrtpO9M6BGAyIBJGTW6USvisIQ4kwBMBgAM6ejQY0AtgqBLaQwGYh8HcvL1SSUBYpLhgQKTJ2dKJBg1ZcQQFoJ9xcAqAvCH0gkvCYvwhbIaC9M2hbimwXCXyFHHzOMJiX9HyWDIg9uqb1qv2i37U7erS2oDAnG/kUQBcIZCUNCXGRwPHWNjTn5KLx6GEcmtTXvxMC04rlYgMGxEXxObT6CjAg6teIM3RRAQbERfE5tPoKMCDq14gzdFEBBsRF8Tm0+gowIOrXiDN0UQEGxEXxObT6CjAg6teIM3RRAQbERfE5tPoKMCDq14gzdFEBBsRF8Tm0+gowIOrXiDN0UQEGxEXxObT6CjAg6teIM3RRAQbERfE5tPoKMCDq14gzdFEBBsRF8Tm0+gowIOrXiDN0UYH/B5cLzl8Du8twAAAAAElFTkSuQmCC;" vertex="1" parent="1">
          <mxGeometry x="680" y="400" width="90" height="90" as="geometry" />
        </mxCell>
        <mxCell id="O8asKUsupp3e0jE8GUq2-18" value="" style="edgeStyle=orthogonalEdgeStyle;rounded=0;orthogonalLoop=1;jettySize=auto;html=1;" edge="1" parent="1" source="O8asKUsupp3e0jE8GUq2-12" target="O8asKUsupp3e0jE8GUq2-2">
          <mxGeometry relative="1" as="geometry" />
        </mxCell>
        <mxCell id="O8asKUsupp3e0jE8GUq2-12" value="" style="shape=image;verticalLabelPosition=bottom;labelBackgroundColor=default;verticalAlign=top;aspect=fixed;imageAspect=0;image=data:image/png,iVBORw0KGgoAAAANSUhEUgAAAMgAAADICAYAAACtWK6eAAAAAXNSR0IArs4c6QAAF3tJREFUeF7tnXl0VdW9x7/7JiEJJEByM4BKESwOsLQVpPa9gmJb2yW2Qi6DIOB6gNb1XhVeQV1Wfctni9aioKK2CwGxUocyXEBLaMS1tMLr6pOCdcLnwDxkuPcmQAIhJPf+3jqXMOaGe4Z9ztnn3N/5hz+yf8P+/vaHM9w9CPDFCrACnSogWBtWgBXoXAEGhEcHK3AeBRgQHh6sAAPCY4AVMKcA30HM6cZWGaIAA5IhheZumlOAATGnG1tliAIMSIYUmrtpTgEGxJxubJUhCjAgGVJo7qY5BRgQc7qxVYYowIBkSKG5m+YUYEDM6cZWGaIAA5IhheZumlOAATGnG1tliAIMSIYUmrtpTgEGxJxubJUhCjAgLhX61d1U1LU7erS2oDAnG/kUQBcIZCXTIcRFAsdb29Cck4vGo4dxaFJf0eBSqhkdlgGxqfyrG+hitOIKCmAAgEsA9AWhDwQGWwpJ2AqBvQB2A9guEvgKOfi8okjssuSXjVMqwIBIGBgaDET4riAMJcIQIAlBoQTXRlw0AtgqBLaQwGYh8HeGxoh8qdsyICY0XFtL5Yks3EgCN4AwHkCBCTdOmDRBYHmC8G5OHBtGlYtaJ4L6KQYDorOaa2I0MEG4BQI3gzBMp5lazQQ2gbCurRVvju8ttqmVnJrZMCDnqcuaGPVJJDABAuMADFWzhKaz2gzCikAAb4wOCu2dhq8UCjAgKUQJRylEhOlCYGQmjBoiVAqBJaESEc6E/hrpIwPSrtarB6kovw13QeBOEPobEdE3bQV2gLCoORsLJ/Xkz8paXTMekOQXqARmgPAL3wx0GR0hPC2ysSDTv4RlLCDLa6hfdjZmA/i5jPHkYx8viCw8lamgZBwgfz5IRcfjeBCEe308qOV3TeCp5iY8nmm/6GcUIOEIzYLAPPmjJ4M8EmaHSsX8TOlxRgCyup5uojiWQqA8Uwpraz8JtSILUyuKxXpb4yjg3NeAJB+nWjEXAncooLX/UiAsbs7B/X7+4uVbQFZHaGICmC8EevlvZKrTIyLUBIBZFaXidXWykpeJ7wCpJMo9FsXzfNeQN0h0eSIsPtSEe6b2E8d0tfdII18BsiJCI7IEXgPQ2yP6+y3NakG4raJUvOeXjvkGEP5CpdCQFJgdCvrjS5cvAAlH6SUAUxUaIpwKsDRUIqZ5XQhPA9I+TWSZZ6efe330pMuf8D9tcUwZ30vsTNdU1b97FpBwPQ1DAhtVFZbzOq1APIHrxpUJT9bKk4Bo09EBrOJB6B0FEnGMHVsuPFczzwESjtE0EJZ4Z2hwpqcUEJgeCgrtfdEzl6cACUdJm3n7vGfU5URTKXB3qES84BVpPAPIyjqaGQjgGa8Iy3l2rkAigf8cWyae9YJGngCE7xxeGEqGc/TEnUR5QPidw/DA846BB95JlAZkZS2NCWRhpXcqzpmaUGCMyptFKAvIijoanhXA+yYEZxOvKRDA8FCx2KRi2koC0r5efIeKgnFO9iggstBPxXXvSgISjtAmCHzPnlKwVyUVENgUCorhquWmHCA88VC1IeJoPspNcFQKkHCMZoF4UwVHh6RqwRTbFEIZQFZHaAQJvKtavTgf5xWIE24Yp8iiKyUAWbqT8noUQnsp55WAzo9HFSNW5wXRb6QQLW4npwQg4Qgt4jXkbg8FxeITFodKxZ1uZ+U6INruI3RiHTlfrMBZCrSvb3d1txRXAdF2VM9rxTbemofJSKWAtqVQbg4G/sTFneZdBYQfrRiMtAq4/KjlGiDJ7UATqEwrEDfIeAVEACPd2ubUNUDCEarhvXIzfuzrE4BQGyoVruyQ6QogvIeVvnHBrc5QwKUfEB0H5NXdVJTfDfVcfFbAqAJdslHs9Au744CEY/Sk2cNr4keb0LTrC6O6cnuXFCjodzmy8rvJiy7wVCgo7pPnML0nRwFJbvQWh+FNxI7X12HLH57Dx//4IH2PuIVSClxx1bcx6MafIjhYztHybW3o7+RGdI4CEo6StiOJoTMBW2r34eVZ05UqOidjXIEpjz2Hrhdfatywo8ULoRJxtwxHenw4BojZu8empx7EZx9u0dMXbqOwAlcOGYp/nTVHSoZOLq5yDJBwhOZDGD9qeeXMyYhFI1KEZSfuKnDHolXI6lpgPQmBp0NBMcu6o/QeHAFEm1KS32buy9XCST9O3wtu4QkFJjz0OHoMHCIl1+ZsFDtx9JsjgISj9ACA35hRJhUgu2tqzLhiG4cUyAoEcFFZWYdoMgEB8MtQiXjC7i45A0iMtoPQ30xnUgGyq7oah48cMeOObRxQoLh7d/sBEdgRCopL7O6O7YBY3YmdAbF7CMj37wggJ9K2fU8t2wFZFaF1QmCk2TIwIGaVc8/OKUCIUDmmVNxsZ09tBWRNjPokCHusdIABsaKeO7ZOAaL1LiDwjdFBsdeuntoKSDhC90FgrpXkGRAr6rlj6yQgINwfKhVP2tVTewGJkjY3ZKiV5BkQK+q5Y+soIMDmUIn4jl09tQ2Q5dU0MDsHn1lN3OuA5Ofl4ZL+/VFbV4dINGpVDk/YOwyI9pg1aHRQbLNDHNsAsfLbx5kd9TIgU6dMwX/87Ge4sPcFyS797sUXMWfub+2oo1I+nQbEzt9E7AMkRhtlHM/sVUBmz5iB2TNmdhi4L7y4EI/NtfRaphQMqZJxHBAb9/W1BZC1tVQez4KUn7u9CEhncGiD6UBNNa4ZJmfqt6qkOA4IgKw4eo0qF7WyNbEFkJVRmhwAlslI1muAnA8OTY+9+/bh2hHXy5BGWR9uACKAKRUl4o+yRbEFkHCMloAwTUayXgIkHRyaHr9fvBi/fsLUtDQZcjriww1AIPBSKCikLxyyB5AoNQKQMK8Z8AogeuB4a30l7rrnHkcGqZtBXAEEaAqViELZ/ZYOiNmFUZ11zAuAMBxnV88lQGDHQirpgITraQISkLafquqAMBwd/2tzCxAEMDFULN6QeReRDsjqGM0jgrTVXioDwnCkHopuASIE5lcExWylAQlH6T0A0j7TqAoIw9H5MHQLEAB/DZWIEaoDchiAtJclFQFhOM4/BF0EpDFUIrorC4jsF3Sto6oBwnCkH34uAiL9RV3qO8jqOrqJAnJ3bFcJEIYjPRxaC1cBSWBkRZlYry/T9K2kAhKO0gwAz6YPq7+FKoAwHPpr5iYgAGaGSsQC/dmev6VsQDQ4NEikXSoAwnAYK6fLgCwIlYiOs0SNdeFUa9mArAEwymQuKc3cBoThMF5NlwFZGyoRo41nndpCLiAR2gKBwbKSc/slneEwV0lXASFsDZUKObvTAZALSJTInKSdW7l1B2E4zFfSVUAAhEqEtHEtzZEmZ9gngDAc5uFw+yuWFl9JQOw6OcrpOwjDYQ0OFQBpPoLiSX1Fg/WeSHzEsuNHQqffQSZPmIC5cx47r66ZMmXdyuBy+xFL5qxeaY9Yy2voyuxsfGxF2FS2Tt5B3lqxEkOuvrrTLjAcp6XJyc5Gl5yclFp179oNpUU9O/zt+5PvRDc5h+icd5h9tmHdtJ0fvN/hJLNAINBUWVn5DyNjVBogq6P0HQL+10hwPW2dBOTA19sZDh1F6V1SgtKeRTpaKtlkWzweH/vOO+98ric7aYCE62kYEtioJ6iRNk4CsvZPyzF0SMcvhHrvHBf27p3c5ueHN3w/2cW/btqE+x9+yEh3lW+bn5uLAX2+YVueTc3NOHa8BcWF3REIBOyK81pVVdUkPc7lAdJA1yMObaq71MtJQFK9g+iF49IBA/Digueg/XvmNW/Bs5i3QNrMB6namnFWVFiIPuW9zJjqsvlsx3bEEwlcVFaenNNl0/VFVVXV5Xp8MyDnqPQv116LsaNGo6ysDP/8+CNdg7szOE66vvb667F3/z499VC+TVFhd/QpL7ctz93V1Wg61ox+vS9A17w8u+J8WVVVdZke5/IA8cEjlh7Bzm2TDg6t/Y9u+Sk+3WbLzphmUrZkYzcglpLTb+w8IH54Sdev74mWeuDYX30A1914I5qPHTPqXsn2JwGJHjqIao/tNVxWVITy4qCmq/OA+OEzr5ERqQcOzd9Dj/43li6TsoeekfRsa3smIAci3jp9uLy42D1A/PBDod5RpRcOv72ga/owIHpHyTnt/DLVJF33MxkOBiTd6Ejzd79MVuysm5kOBwPCgHSqAMNxQhp+xLIASdhnC6ZOSsFwnB4UDIgVQKLkuyW3mhyvv/wHXJ/mTA8/vpCnGgoMiDVAfLdpg3b3eG/9X86rSqbAYecj1hWXX45Lv/lNvFVZiUQiYWEUdm7q6mdeLS0/bvujHcC58e0NnaqeSXDYBci4igo8M/dJCCGw4Pe/wxPz5vkTEL9uHKfdQc6dhKhVMNPgsAOQSbdqi9TmJOHQrpdeeQUP/+pRnwLSQBdTHB0WqljprZOzeTvLU1tEtWzRYvTseWIRUPOx5uSJtX6apau3RjLfQf5t0mQ8/uhpGGrranFTRQVqaqUfNZjsnuuPWO2PWb7cvDovLw9Xf+tbSaEbGxt9M/lQLxgn28kCRLtzPPnY6eXN+/bvR+i2idD+tetSBZCMOP7AriKq7lcGIFOn3I7HHnnkVFc1KG4ZP862O8fJQEoAkkkH6Kg+mO3IzyogbsGhziNWhh3BZscgVNmnFUDOhWP33r2omHCr7XcOte4gkl/UVXhJV3nAOp2bWUD+/Y478V8PPHAqXQ2OW8aNRcTBNSVKPGK1v6hn3DHQTg9Ut+KZAUQFOJR5xEoCEqMlIEyTUUS+g8hQUZ4Po4BcM3gw3ly+4lQC23fsSH6tcvLOodQjlpbM6ihNJkDKMjoGRN7gluHJKCA/+sEP8fLChcnQGhyjbh2P+obTu4KWlZbiByNuwLq/rMfhRu3Bw75LmUestbVUHs9CjYyuMiAyVJTnwygg2i/kv/31HJQEg7j3wV+eBcegKwYi/PrrKCwowIcffYSbx4TkJZrCkzKAtD9mbQRhmNUepwJkv8fWQlvVQCV7bSseDRJt0wYra9K/fdVV+NMry5JwaFfmARIl7ZPFb6wWNxUgVn2yvVUFhCVANDhW/PFVdOvaNZlIbV0dRo0fjz379lpN7Lz2St1B1sRoYILwmdUeMyBWFbTD3jwg58IRq69P/oq+c9cuOxI9y6dSgCQfs6L0AYChVnrOgFhRzy5bc4BcNmAA1oXD6Jp/4s7R2NSE0beOx+dffGFXoooDEqH7IDDXSu8ZECvq2WVrDhDt7BVt/2PtOtp8FKGJE/Hxp5/alWQHv8rdQdbEqE+CsMeKAgyIFfXssjUHyIjh1+G1pUuTcNw65XZs+eeHdiWY0q9ygGhZrorQOiEw0qwSDIhZ5ey0MweIltGVgwYllwvs2mPp/01TnVMSkHCUtI/bq0z1CAADYlY5O+3MA2JnVul8KwlI8mU9RttB6J+uA6n+zoCYUc1uGwZEqsJhC7+JMCBSSyHJGQMiScgTbl49SEX5bag345QBMaOa3TYMiHSFwzGaD8IvjDpmQIwq5kR7BkS6ymaPR2BApJdCgkMGRIKIHV2Eo/Q8gJ8bcc6AGFHLqbYMiC1KL6+hftnZ2GHEOQNiRC2n2jIgtikdjtGTINyrN8Cb909HtU9OiNXbZ/XbMSC21ejPB6nouIEvWp+8/Az+tmG9bfmwYzMKMCBmVNNtE47QLAjo3qH4b/MfxidbNuv2zw3tVoABsVthhCNUAwHdJ9J/tWoJdny0Fbu2f217bhwgnQIMSDqFLP99dT3dRAlUWnakoIOuLY3oHZW6h3eHXiYCWdjZe5Djvf/i/Q14b+E8SysKHU+6PaCyc7E6EyQcoUUQuMMtweyK27MpiuChA3a5P+V3d6/L0ZbVxfY4ZwZgQByUW3thb2nFNiHQy8Gwtocqa9iHwqOmZtYYyq062A9H8woN2VhtzIBYVdCg/eoITSSB1wyaKd38osjXyD1+1PYcYz1642BBqe1x+A7iqMQdg/ntUav/gU8hyJ5z9s5Ur7FrEeqK+jhaPb6DOCr3iWCVRLnHYsmTqXq7EF5qyJy2Fnyj1plNCFpy8rGvbIDU/NM5Y0DSKWTT31dEaESWwLs2uXfMbbfmQ+hVv9uReCQEdlxwpSOxTgZhQByV++xgRn9AdDHVTkMXNdai+LA9Z+ylCrq3/DIcz851TAoGxDGpUwcKR+klAFNdTsN0+PL6PShoPmja3qhhbXFfNOX3MGpmuj0DYlo6eYbhGEnZ11deRvo99an9El3ajuk3sNiyobAc9d11T0iwGA1gQCxLaN2B2cVV1iNb8yCI0P/AJ9acGLQ+kt8DNcV9DVqZb34mIIebjph35IJlt/w8lBcHtchfVlVVXaYnhROntyt4hetpGBLYqGBqnaaU29qMi+q+cjTl1uxc7CnXVWspeZ0ERIqzTpxEDx5ES+tx5OZ0QUn72fSS43kfEE0Qq3tqSRY1rbvCow0oa7B3h/JUSWhfsrQvWk5cdgNSWx9Dbf3pWQi9ioMoKy6W3TV/AJKEJEbTQFgiWyHz/qhT0+DhGvRsjJh3bdJS+y2kJSevE2u54NgNyK7qAzh85PSjW4+CAvTtJf3nMf8A0n4n0daxa+vZXb+Ch6rRs8l5CMx0/HhOHvaWXWrGtFObHR9swoZn50j1eaYz7XCk2KHTXwG1R6wLSqRPp9lSVVV1jZ5OyP3vRU9Ek21W1tHMQADPmDSXZqYB0u3YIWn+7HREIiAdkJYjTXht5u043mzPXLN4PI4D0eipd5ALS0sRCARky/RIVVXVr/Q49Qwgqt1J9Ijr1zbV//cJPlq3Cg37jc8YONZ4OHr86BG3/odpJKI1b7/99qN6a+MpQNR8J9ErNbeDwPRQUGg/BHvm8hwgmrIra2lMIAsrPaMyJ6opMCZUIsJek8KTgGgir6ij4VkBvO81wTMy3wCGh4rFJi/23bOAaGInN6LLwjIIfM+L4vs+Z4FNIoApFUXC/hM6bRLT04Cc1MTrExxtqq3bbpeGSsQ0t5OwGt8XgLS/vM8C6d9ry6pwbH8eBQizQ6Vivh808g0gWjFWR2hE+/p26T+9+qHYDvShOk64bVypeM+BWI6E8BUgmmJLd1JejwI858fthBwZEWaDEBbnleDukUK0mHWhop3vADkpsrZbSgKY77cthVQbRESoCQCzKkrF66rlJiMf3wKiiZM8+q0Vc/luImOopPBBWNwlB/f/pKdosCmC6259Dcipu4m2zWkcS43sBex6ZVROgFArsjC1olj4ftv9jADk1Odgg7vKqzxGXcvNR1+o9GiYUYAkH7t2U1F+AR40coiPHiF930bgqS5ZeNzPj1OpaphxgJx67GqgiymePOnK0JmJvgehYwdfaGvDvPG9hL3b1SsqbMYCchYobZgBYfyIakVrKictgafbWvFcpoJxUsSMB+SkEMkvXm24CwJ3gtBfzijzmBeBHSAsas7Gwkk+/jJlpCoMSAq1tM0iiDBdCIw0IqZX2xKhUggs8eJ0dLs1Z0DOo/CaGPVJJDABAuMADLW7GA773wzCikAAb4wOCue3YnG4s2bDMSA6lVteTQOzc3ALBG4GYZhOM7WaCWwCYV1A4M3RQbFNreTUzIYBMVGXtbVU3pqFGwMCN4AwHkCBCTdOmDRBYLkgvBuIY8OocuHcrtpO9M6BGAyIBJGTW6USvisIQ4kwBMBgAM6ejQY0AtgqBLaQwGYh8HcvL1SSUBYpLhgQKTJ2dKJBg1ZcQQFoJ9xcAqAvCH0gkvCYvwhbIaC9M2hbimwXCXyFHHzOMJiX9HyWDIg9uqb1qv2i37U7erS2oDAnG/kUQBcIZCUNCXGRwPHWNjTn5KLx6GEcmtTXvxMC04rlYgMGxEXxObT6CjAg6teIM3RRAQbERfE5tPoKMCDq14gzdFEBBsRF8Tm0+gowIOrXiDN0UQEGxEXxObT6CjAg6teIM3RRAQbERfE5tPoKMCDq14gzdFEBBsRF8Tm0+gowIOrXiDN0UQEGxEXxObT6CjAg6teIM3RRAQbERfE5tPoKMCDq14gzdFEBBsRF8Tm0+gowIOrXiDN0UYH/B5cLzl8Du8twAAAAAElFTkSuQmCC;" vertex="1" parent="1">
          <mxGeometry x="765" y="300" width="90" height="90" as="geometry" />
        </mxCell>
        <mxCell id="O8asKUsupp3e0jE8GUq2-19" value="" style="edgeStyle=orthogonalEdgeStyle;rounded=0;orthogonalLoop=1;jettySize=auto;html=1;" edge="1" parent="1" source="O8asKUsupp3e0jE8GUq2-13" target="O8asKUsupp3e0jE8GUq2-3">
          <mxGeometry relative="1" as="geometry" />
        </mxCell>
        <mxCell id="O8asKUsupp3e0jE8GUq2-13" value="" style="shape=image;verticalLabelPosition=bottom;labelBackgroundColor=default;verticalAlign=top;aspect=fixed;imageAspect=0;image=data:image/png,iVBORw0KGgoAAAANSUhEUgAAAMgAAADICAYAAACtWK6eAAAAAXNSR0IArs4c6QAAF3tJREFUeF7tnXl0VdW9x7/7JiEJJEByM4BKESwOsLQVpPa9gmJb2yW2Qi6DIOB6gNb1XhVeQV1Wfctni9aioKK2CwGxUocyXEBLaMS1tMLr6pOCdcLnwDxkuPcmQAIhJPf+3jqXMOaGe4Z9ztnn3N/5hz+yf8P+/vaHM9w9CPDFCrACnSogWBtWgBXoXAEGhEcHK3AeBRgQHh6sAAPCY4AVMKcA30HM6cZWGaIAA5IhheZumlOAATGnG1tliAIMSIYUmrtpTgEGxJxubJUhCjAgGVJo7qY5BRgQc7qxVYYowIBkSKG5m+YUYEDM6cZWGaIAA5IhheZumlOAATGnG1tliAIMSIYUmrtpTgEGxJxubJUhCjAgLhX61d1U1LU7erS2oDAnG/kUQBcIZCXTIcRFAsdb29Cck4vGo4dxaFJf0eBSqhkdlgGxqfyrG+hitOIKCmAAgEsA9AWhDwQGWwpJ2AqBvQB2A9guEvgKOfi8okjssuSXjVMqwIBIGBgaDET4riAMJcIQIAlBoQTXRlw0AtgqBLaQwGYh8HeGxoh8qdsyICY0XFtL5Yks3EgCN4AwHkCBCTdOmDRBYHmC8G5OHBtGlYtaJ4L6KQYDorOaa2I0MEG4BQI3gzBMp5lazQQ2gbCurRVvju8ttqmVnJrZMCDnqcuaGPVJJDABAuMADFWzhKaz2gzCikAAb4wOCu2dhq8UCjAgKUQJRylEhOlCYGQmjBoiVAqBJaESEc6E/hrpIwPSrtarB6kovw13QeBOEPobEdE3bQV2gLCoORsLJ/Xkz8paXTMekOQXqARmgPAL3wx0GR0hPC2ysSDTv4RlLCDLa6hfdjZmA/i5jPHkYx8viCw8lamgZBwgfz5IRcfjeBCEe308qOV3TeCp5iY8nmm/6GcUIOEIzYLAPPmjJ4M8EmaHSsX8TOlxRgCyup5uojiWQqA8Uwpraz8JtSILUyuKxXpb4yjg3NeAJB+nWjEXAncooLX/UiAsbs7B/X7+4uVbQFZHaGICmC8EevlvZKrTIyLUBIBZFaXidXWykpeJ7wCpJMo9FsXzfNeQN0h0eSIsPtSEe6b2E8d0tfdII18BsiJCI7IEXgPQ2yP6+y3NakG4raJUvOeXjvkGEP5CpdCQFJgdCvrjS5cvAAlH6SUAUxUaIpwKsDRUIqZ5XQhPA9I+TWSZZ6efe330pMuf8D9tcUwZ30vsTNdU1b97FpBwPQ1DAhtVFZbzOq1APIHrxpUJT9bKk4Bo09EBrOJB6B0FEnGMHVsuPFczzwESjtE0EJZ4Z2hwpqcUEJgeCgrtfdEzl6cACUdJm3n7vGfU5URTKXB3qES84BVpPAPIyjqaGQjgGa8Iy3l2rkAigf8cWyae9YJGngCE7xxeGEqGc/TEnUR5QPidw/DA846BB95JlAZkZS2NCWRhpXcqzpmaUGCMyptFKAvIijoanhXA+yYEZxOvKRDA8FCx2KRi2koC0r5efIeKgnFO9iggstBPxXXvSgISjtAmCHzPnlKwVyUVENgUCorhquWmHCA88VC1IeJoPspNcFQKkHCMZoF4UwVHh6RqwRTbFEIZQFZHaAQJvKtavTgf5xWIE24Yp8iiKyUAWbqT8noUQnsp55WAzo9HFSNW5wXRb6QQLW4npwQg4Qgt4jXkbg8FxeITFodKxZ1uZ+U6INruI3RiHTlfrMBZCrSvb3d1txRXAdF2VM9rxTbemofJSKWAtqVQbg4G/sTFneZdBYQfrRiMtAq4/KjlGiDJ7UATqEwrEDfIeAVEACPd2ubUNUDCEarhvXIzfuzrE4BQGyoVruyQ6QogvIeVvnHBrc5QwKUfEB0H5NXdVJTfDfVcfFbAqAJdslHs9Au744CEY/Sk2cNr4keb0LTrC6O6cnuXFCjodzmy8rvJiy7wVCgo7pPnML0nRwFJbvQWh+FNxI7X12HLH57Dx//4IH2PuIVSClxx1bcx6MafIjhYztHybW3o7+RGdI4CEo6StiOJoTMBW2r34eVZ05UqOidjXIEpjz2Hrhdfatywo8ULoRJxtwxHenw4BojZu8empx7EZx9u0dMXbqOwAlcOGYp/nTVHSoZOLq5yDJBwhOZDGD9qeeXMyYhFI1KEZSfuKnDHolXI6lpgPQmBp0NBMcu6o/QeHAFEm1KS32buy9XCST9O3wtu4QkFJjz0OHoMHCIl1+ZsFDtx9JsjgISj9ACA35hRJhUgu2tqzLhiG4cUyAoEcFFZWYdoMgEB8MtQiXjC7i45A0iMtoPQ30xnUgGyq7oah48cMeOObRxQoLh7d/sBEdgRCopL7O6O7YBY3YmdAbF7CMj37wggJ9K2fU8t2wFZFaF1QmCk2TIwIGaVc8/OKUCIUDmmVNxsZ09tBWRNjPokCHusdIABsaKeO7ZOAaL1LiDwjdFBsdeuntoKSDhC90FgrpXkGRAr6rlj6yQgINwfKhVP2tVTewGJkjY3ZKiV5BkQK+q5Y+soIMDmUIn4jl09tQ2Q5dU0MDsHn1lN3OuA5Ofl4ZL+/VFbV4dINGpVDk/YOwyI9pg1aHRQbLNDHNsAsfLbx5kd9TIgU6dMwX/87Ge4sPcFyS797sUXMWfub+2oo1I+nQbEzt9E7AMkRhtlHM/sVUBmz5iB2TNmdhi4L7y4EI/NtfRaphQMqZJxHBAb9/W1BZC1tVQez4KUn7u9CEhncGiD6UBNNa4ZJmfqt6qkOA4IgKw4eo0qF7WyNbEFkJVRmhwAlslI1muAnA8OTY+9+/bh2hHXy5BGWR9uACKAKRUl4o+yRbEFkHCMloAwTUayXgIkHRyaHr9fvBi/fsLUtDQZcjriww1AIPBSKCikLxyyB5AoNQKQMK8Z8AogeuB4a30l7rrnHkcGqZtBXAEEaAqViELZ/ZYOiNmFUZ11zAuAMBxnV88lQGDHQirpgITraQISkLafquqAMBwd/2tzCxAEMDFULN6QeReRDsjqGM0jgrTVXioDwnCkHopuASIE5lcExWylAQlH6T0A0j7TqAoIw9H5MHQLEAB/DZWIEaoDchiAtJclFQFhOM4/BF0EpDFUIrorC4jsF3Sto6oBwnCkH34uAiL9RV3qO8jqOrqJAnJ3bFcJEIYjPRxaC1cBSWBkRZlYry/T9K2kAhKO0gwAz6YPq7+FKoAwHPpr5iYgAGaGSsQC/dmev6VsQDQ4NEikXSoAwnAYK6fLgCwIlYiOs0SNdeFUa9mArAEwymQuKc3cBoThMF5NlwFZGyoRo41nndpCLiAR2gKBwbKSc/slneEwV0lXASFsDZUKObvTAZALSJTInKSdW7l1B2E4zFfSVUAAhEqEtHEtzZEmZ9gngDAc5uFw+yuWFl9JQOw6OcrpOwjDYQ0OFQBpPoLiSX1Fg/WeSHzEsuNHQqffQSZPmIC5cx47r66ZMmXdyuBy+xFL5qxeaY9Yy2voyuxsfGxF2FS2Tt5B3lqxEkOuvrrTLjAcp6XJyc5Gl5yclFp179oNpUU9O/zt+5PvRDc5h+icd5h9tmHdtJ0fvN/hJLNAINBUWVn5DyNjVBogq6P0HQL+10hwPW2dBOTA19sZDh1F6V1SgtKeRTpaKtlkWzweH/vOO+98ric7aYCE62kYEtioJ6iRNk4CsvZPyzF0SMcvhHrvHBf27p3c5ueHN3w/2cW/btqE+x9+yEh3lW+bn5uLAX2+YVueTc3NOHa8BcWF3REIBOyK81pVVdUkPc7lAdJA1yMObaq71MtJQFK9g+iF49IBA/Digueg/XvmNW/Bs5i3QNrMB6namnFWVFiIPuW9zJjqsvlsx3bEEwlcVFaenNNl0/VFVVXV5Xp8MyDnqPQv116LsaNGo6ysDP/8+CNdg7szOE66vvb667F3/z499VC+TVFhd/QpL7ctz93V1Wg61ox+vS9A17w8u+J8WVVVdZke5/IA8cEjlh7Bzm2TDg6t/Y9u+Sk+3WbLzphmUrZkYzcglpLTb+w8IH54Sdev74mWeuDYX30A1914I5qPHTPqXsn2JwGJHjqIao/tNVxWVITy4qCmq/OA+OEzr5ERqQcOzd9Dj/43li6TsoeekfRsa3smIAci3jp9uLy42D1A/PBDod5RpRcOv72ga/owIHpHyTnt/DLVJF33MxkOBiTd6Ejzd79MVuysm5kOBwPCgHSqAMNxQhp+xLIASdhnC6ZOSsFwnB4UDIgVQKLkuyW3mhyvv/wHXJ/mTA8/vpCnGgoMiDVAfLdpg3b3eG/9X86rSqbAYecj1hWXX45Lv/lNvFVZiUQiYWEUdm7q6mdeLS0/bvujHcC58e0NnaqeSXDYBci4igo8M/dJCCGw4Pe/wxPz5vkTEL9uHKfdQc6dhKhVMNPgsAOQSbdqi9TmJOHQrpdeeQUP/+pRnwLSQBdTHB0WqljprZOzeTvLU1tEtWzRYvTseWIRUPOx5uSJtX6apau3RjLfQf5t0mQ8/uhpGGrranFTRQVqaqUfNZjsnuuPWO2PWb7cvDovLw9Xf+tbSaEbGxt9M/lQLxgn28kCRLtzPPnY6eXN+/bvR+i2idD+tetSBZCMOP7AriKq7lcGIFOn3I7HHnnkVFc1KG4ZP862O8fJQEoAkkkH6Kg+mO3IzyogbsGhziNWhh3BZscgVNmnFUDOhWP33r2omHCr7XcOte4gkl/UVXhJV3nAOp2bWUD+/Y478V8PPHAqXQ2OW8aNRcTBNSVKPGK1v6hn3DHQTg9Ut+KZAUQFOJR5xEoCEqMlIEyTUUS+g8hQUZ4Po4BcM3gw3ly+4lQC23fsSH6tcvLOodQjlpbM6ihNJkDKMjoGRN7gluHJKCA/+sEP8fLChcnQGhyjbh2P+obTu4KWlZbiByNuwLq/rMfhRu3Bw75LmUestbVUHs9CjYyuMiAyVJTnwygg2i/kv/31HJQEg7j3wV+eBcegKwYi/PrrKCwowIcffYSbx4TkJZrCkzKAtD9mbQRhmNUepwJkv8fWQlvVQCV7bSseDRJt0wYra9K/fdVV+NMry5JwaFfmARIl7ZPFb6wWNxUgVn2yvVUFhCVANDhW/PFVdOvaNZlIbV0dRo0fjz379lpN7Lz2St1B1sRoYILwmdUeMyBWFbTD3jwg58IRq69P/oq+c9cuOxI9y6dSgCQfs6L0AYChVnrOgFhRzy5bc4BcNmAA1oXD6Jp/4s7R2NSE0beOx+dffGFXoooDEqH7IDDXSu8ZECvq2WVrDhDt7BVt/2PtOtp8FKGJE/Hxp5/alWQHv8rdQdbEqE+CsMeKAgyIFfXssjUHyIjh1+G1pUuTcNw65XZs+eeHdiWY0q9ygGhZrorQOiEw0qwSDIhZ5ey0MweIltGVgwYllwvs2mPp/01TnVMSkHCUtI/bq0z1CAADYlY5O+3MA2JnVul8KwlI8mU9RttB6J+uA6n+zoCYUc1uGwZEqsJhC7+JMCBSSyHJGQMiScgTbl49SEX5bag345QBMaOa3TYMiHSFwzGaD8IvjDpmQIwq5kR7BkS6ymaPR2BApJdCgkMGRIKIHV2Eo/Q8gJ8bcc6AGFHLqbYMiC1KL6+hftnZ2GHEOQNiRC2n2jIgtikdjtGTINyrN8Cb909HtU9OiNXbZ/XbMSC21ejPB6nouIEvWp+8/Az+tmG9bfmwYzMKMCBmVNNtE47QLAjo3qH4b/MfxidbNuv2zw3tVoABsVthhCNUAwHdJ9J/tWoJdny0Fbu2f217bhwgnQIMSDqFLP99dT3dRAlUWnakoIOuLY3oHZW6h3eHXiYCWdjZe5Djvf/i/Q14b+E8SysKHU+6PaCyc7E6EyQcoUUQuMMtweyK27MpiuChA3a5P+V3d6/L0ZbVxfY4ZwZgQByUW3thb2nFNiHQy8Gwtocqa9iHwqOmZtYYyq062A9H8woN2VhtzIBYVdCg/eoITSSB1wyaKd38osjXyD1+1PYcYz1642BBqe1x+A7iqMQdg/ntUav/gU8hyJ5z9s5Ur7FrEeqK+jhaPb6DOCr3iWCVRLnHYsmTqXq7EF5qyJy2Fnyj1plNCFpy8rGvbIDU/NM5Y0DSKWTT31dEaESWwLs2uXfMbbfmQ+hVv9uReCQEdlxwpSOxTgZhQByV++xgRn9AdDHVTkMXNdai+LA9Z+ylCrq3/DIcz851TAoGxDGpUwcKR+klAFNdTsN0+PL6PShoPmja3qhhbXFfNOX3MGpmuj0DYlo6eYbhGEnZ11deRvo99an9El3ajuk3sNiyobAc9d11T0iwGA1gQCxLaN2B2cVV1iNb8yCI0P/AJ9acGLQ+kt8DNcV9DVqZb34mIIebjph35IJlt/w8lBcHtchfVlVVXaYnhROntyt4hetpGBLYqGBqnaaU29qMi+q+cjTl1uxc7CnXVWspeZ0ERIqzTpxEDx5ES+tx5OZ0QUn72fSS43kfEE0Qq3tqSRY1rbvCow0oa7B3h/JUSWhfsrQvWk5cdgNSWx9Dbf3pWQi9ioMoKy6W3TV/AJKEJEbTQFgiWyHz/qhT0+DhGvRsjJh3bdJS+y2kJSevE2u54NgNyK7qAzh85PSjW4+CAvTtJf3nMf8A0n4n0daxa+vZXb+Ch6rRs8l5CMx0/HhOHvaWXWrGtFObHR9swoZn50j1eaYz7XCk2KHTXwG1R6wLSqRPp9lSVVV1jZ5OyP3vRU9Ek21W1tHMQADPmDSXZqYB0u3YIWn+7HREIiAdkJYjTXht5u043mzPXLN4PI4D0eipd5ALS0sRCARky/RIVVXVr/Q49Qwgqt1J9Ijr1zbV//cJPlq3Cg37jc8YONZ4OHr86BG3/odpJKI1b7/99qN6a+MpQNR8J9ErNbeDwPRQUGg/BHvm8hwgmrIra2lMIAsrPaMyJ6opMCZUIsJek8KTgGgir6ij4VkBvO81wTMy3wCGh4rFJi/23bOAaGInN6LLwjIIfM+L4vs+Z4FNIoApFUXC/hM6bRLT04Cc1MTrExxtqq3bbpeGSsQ0t5OwGt8XgLS/vM8C6d9ry6pwbH8eBQizQ6Vivh808g0gWjFWR2hE+/p26T+9+qHYDvShOk64bVypeM+BWI6E8BUgmmJLd1JejwI858fthBwZEWaDEBbnleDukUK0mHWhop3vADkpsrZbSgKY77cthVQbRESoCQCzKkrF66rlJiMf3wKiiZM8+q0Vc/luImOopPBBWNwlB/f/pKdosCmC6259Dcipu4m2zWkcS43sBex6ZVROgFArsjC1olj4ftv9jADk1Odgg7vKqzxGXcvNR1+o9GiYUYAkH7t2U1F+AR40coiPHiF930bgqS5ZeNzPj1OpaphxgJx67GqgiymePOnK0JmJvgehYwdfaGvDvPG9hL3b1SsqbMYCchYobZgBYfyIakVrKictgafbWvFcpoJxUsSMB+SkEMkvXm24CwJ3gtBfzijzmBeBHSAsas7Gwkk+/jJlpCoMSAq1tM0iiDBdCIw0IqZX2xKhUggs8eJ0dLs1Z0DOo/CaGPVJJDABAuMADLW7GA773wzCikAAb4wOCue3YnG4s2bDMSA6lVteTQOzc3ALBG4GYZhOM7WaCWwCYV1A4M3RQbFNreTUzIYBMVGXtbVU3pqFGwMCN4AwHkCBCTdOmDRBYLkgvBuIY8OocuHcrtpO9M6BGAyIBJGTW6USvisIQ4kwBMBgAM6ejQY0AtgqBLaQwGYh8HcvL1SSUBYpLhgQKTJ2dKJBg1ZcQQFoJ9xcAqAvCH0gkvCYvwhbIaC9M2hbimwXCXyFHHzOMJiX9HyWDIg9uqb1qv2i37U7erS2oDAnG/kUQBcIZCUNCXGRwPHWNjTn5KLx6GEcmtTXvxMC04rlYgMGxEXxObT6CjAg6teIM3RRAQbERfE5tPoKMCDq14gzdFEBBsRF8Tm0+gowIOrXiDN0UQEGxEXxObT6CjAg6teIM3RRAQbERfE5tPoKMCDq14gzdFEBBsRF8Tm0+gowIOrXiDN0UQEGxEXxObT6CjAg6teIM3RRAQbERfE5tPoKMCDq14gzdFEBBsRF8Tm0+gowIOrXiDN0UYH/B5cLzl8Du8twAAAAAElFTkSuQmCC;" vertex="1" parent="1">
          <mxGeometry x="780" y="145" width="90" height="90" as="geometry" />
        </mxCell>
      </root>
    </mxGraphModel>
  </diagram>
</mxfile>
